<ttFont>
          <CharString index="0">
            hstem
            14 153 61 158 vstem
            -107 callgsubr
            return
          </CharString>
          <CharString index="1">
            hstem
            24 174 144 172 vstem
            -106 callgsubr
            return
          </CharString>
          <CharString index="2">
            -15 callsubr
            -75 callgsubr
            145 60 74 184 170 -63 73 -142 hvcurveto
            -1 -99 callsubr
            return
          </CharString>
          <CharString index="3">
            -61 -28 -27 -52 -39 16 -26 37 -8 hvcurveto
            2 -5 -62 -81 59 -22 rlineto
            73 46 53 51 74 vvcurveto
            57 -29 32 -60 vhcurveto
            return
          </CharString>
          <CharString index="4">
            rmoveto
            -37 24 -22 37 43 23 22 37 36 -23 22 -43 -37 -24 -22 -36 vhcurveto
            169 hmoveto
            -37 23 -22 40 41 23 22 37 36 -23 22 -41 -39 -24 -22 -36 vhcurveto
            endchar
          </CharString>
          <CharString index="5">
            232 -105 callgsubr
            return
          </CharString>
          <CharString index="6">
            rmoveto
            -35 22 -21 35 41 22 21 35 34 -22 21 -41 -35 -22 -21 -34 vhcurveto
            160 hmoveto
            -35 22 -21 38 39 22 21 35 34 -22 21 -39 -37 -23 -21 -34 vhcurveto
            endchar
          </CharString>
          <CharString index="7">
            469 424 rmoveto
            139 -61 58 -132 vhcurveto
            -232 -621 168 224 23 hlineto
            62 -224 rlineto
            185 hlineto
            -83 264 rlineto
            47 39 23 44 77 vvcurveto
            -183 -23 rmoveto
            -57 -14 -15 -34 vhcurveto
            -26 140 27 hlineto
            32 15 -18 -50 hvcurveto
            return
          </CharString>
          <CharString index="8">
            -135 rmoveto
            36 3 -23 -82 hvcurveto
            -29 vlineto
            -85 -5 -22 -32 -39 -3 23 90 vhcurveto
            24 vlineto
            81 4 23 36 vhcurveto
            return
          </CharString>
          <CharString index="9">
            274 143 rmoveto
            -40 -15 20 41 hvcurveto
            417 -175 -428 vlineto
            -144 77 -59 146 148 84 58 147 vhcurveto
            426 -172 -416 vlineto
            -42 -12 -20 -41 vhcurveto
            return
          </CharString>
          <CharString index="10">
            hstem
            24 169 vstem
            -102 callsubr
            return
          </CharString>
          <CharString index="11">
            -6 callsubr
            vstem
            554 -67 callsubr
            -152 413 -101 callgsubr
            333 -196 -101 callgsubr
            return
          </CharString>
          <CharString index="12">
            13 34 hhcurveto
            20 8 -12 -16 hvcurveto
            -24 vlineto
            -133 -12 -81 -27 -118 vvcurveto
            return
          </CharString>
          <CharString index="13">
            hstem
            24 -17 callgsubr
            -102 callgsubr
            return
          </CharString>
          <CharString index="14">
            -55 callgsubr
            29 140 -107 callsubr
            return
          </CharString>
          <CharString index="15">
            rmoveto
            -103 -31 hlineto
            -19 4 rlineto
            7 -26 -31 11 -28 hhcurveto
            -63 -18 -46 -77 hvcurveto
            -10 103 34 vlineto
            23 -8 rlineto
            -8 24 27 -7 25 hhcurveto
            75 11 54 69 hvcurveto
            endchar
          </CharString>
          <CharString index="16">
            hmoveto
            10 140 rlineto
            -175 103 143 132 -143 11 callgsubr
            hlineto
            10 153 rlineto
            return
          </CharString>
          <CharString index="17">
            -21 callgsubr
            -92 callgsubr
            return
          </CharString>
          <CharString index="18">
            rmoveto
            -151 hlineto
            -66 -135 rlineto
            107 hlineto
            35 56 35 -56 rlineto
            return
          </CharString>
          <CharString index="19">
            7 -34 callgsubr
            29 140 -97 callsubr
            return
          </CharString>
          <CharString index="20">
            -74 callsubr
            -215 68 -108 175 return
          </CharString>
          <CharString index="21">
            rmoveto
            -143 hlineto
            -63 -128 rlineto
            102 hlineto
            33 53 33 -53 rlineto
            101 hlineto
            endchar
          </CharString>
          <CharString index="22">
            rmoveto
            64 11 -39 -118 hvcurveto
            -32 vlineto
            -119 -11 return
          </CharString>
          <CharString index="23">
            491 16 callsubr
            -62 -55 -101 -100 65 -40 106 -41 hvcurveto
            16 -6 6 -4 -11 vvcurveto
            -11 -9 -4 -14 -30 -47 11 16 -59 vhcurveto
            -11 -135 rlineto
            -12 47 48 -8 51 hhcurveto
            122 43 55 101 101 -71 38 -90 33 hvcurveto
            -13 5 -10 5 10 vvcurveto
            11 7 6 14 27 61 -12 -11 49 vhcurveto
            17 139 rlineto
            12 -48 -52 8 -55 hhcurveto
            return
          </CharString>
          <CharString index="24">
            25 -37 callsubr
            29 140 -94 callsubr
            return
          </CharString>
          <CharString index="25">
            rmoveto
            34 11 -17 -30 hvcurveto
            -24 -87 vlineto
            41 5 30 37 vhcurveto
            return
          </CharString>
          <CharString index="26">
            rmoveto
            -160 hlineto
            -63 -140 rlineto
            115 hlineto
            endchar
          </CharString>
          <CharString index="27">
            -67 -19 -49 -81 hvcurveto
            -45 callsubr
            -69 callgsubr
          </CharString>
          <CharString index="28">
            9 12 18 5 17 hhcurveto
            15 7 -10 -15 hvcurveto
            -312 return
          </CharString>
          <CharString index="29">
            464 -70 callgsubr
            146 -429 rlineto
            -192 170 192 vlineto
            return
          </CharString>
          <CharString index="30">
            -29 callgsubr
            61 140 -97 callgsubr
            return
          </CharString>
          <CharString index="31">
            16 callsubr
            -33 hlineto
            -20 5 rlineto
            7 -27 -33 12 -29 hhcurveto
            return
          </CharString>
          <CharString index="32">
            -29 callsubr
            63 133 -96 callgsubr
            return
          </CharString>
          <CharString index="33">
            -27 callgsubr
            -176 -70 -95 -223 return
          </CharString>
          <CharString index="34">
            -57 callsubr
            -25 -9 9 22 hvcurveto
            478 -165 return
          </CharString>
          <CharString index="35">
            61 28 27 52 39 -16 26 -37 8 hvcurveto
            -2 5 62 81 -59 22 rlineto
            -73 -46 -53 -51 -74 vvcurveto
            -57 29 -32 60 vhcurveto
            return
          </CharString>
          <CharString index="36">
            -43 callgsubr
            14 -138 rlineto
            50 hlineto
            126 37 32 103 hvcurveto
            return
          </CharString>
          <CharString index="37">
            rmoveto
            115 hlineto
            -65 140 rlineto
            -158 hlineto
            endchar
          </CharString>
          <CharString index="38">
            474 rmoveto
            -167 -459 hlineto
            -71 callsubr
            return
          </CharString>
          <CharString index="39">
            rmoveto
            137 hlineto
            57 136 rlineto
            -98 hlineto
            -28 -51 -28 51 rlineto
            -98 hlineto
            endchar
          </CharString>
          <CharString index="40">
            -27 callgsubr
            -118 hlineto
            -179 -641 rlineto
            117 hlineto
            return
          </CharString>
          <CharString index="41">
            21 -55 callsubr
            return
          </CharString>
          <CharString index="42">
            -200 402 -31 callgsubr
            45 -79 callgsubr
            endchar
          </CharString>
          <CharString index="43">
            -73 callsubr
            -176 -95 25 vlineto
            -10 callsubr
            -24 -34 2 -44 hhcurveto
            endchar
          </CharString>
          <CharString index="44">
            196 269 rmoveto
            51 12 11 52 vhcurveto
            46 hlineto
            7 160 rlineto
            -69 -23 -6 -35 -31 hvcurveto
            -4 hlineto
            return
          </CharString>
          <CharString index="45">
            rlineto
            -12 -50 -38 -11 -41 hhcurveto
            -45 -24 return
          </CharString>
          <CharString index="46">
            570 rmoveto
            -86 callgsubr
          </CharString>
          <CharString index="47">
            hstem
            44 152 148 153 vstem
            497 -73 callgsubr
            return
          </CharString>
          <CharString index="48">
            188 -218 5 56 vvcurveto
            26 18 12 29 33 47 -10 -13 56 vhcurveto
            20 160 rlineto
            return
          </CharString>
          <CharString index="49">
            hstem
            146 -9 callgsubr
            -78 callsubr
            return
          </CharString>
          <CharString index="50">
            -89 46 -31 85 vhcurveto
            55 hlineto
            13 142 rlineto
            return
          </CharString>
          <CharString index="51">
            hmoveto
            621 -170 -621 vlineto
            return
          </CharString>
          <CharString index="52">
            -36 callgsubr
            -20 return
          </CharString>
          <CharString index="53">
            hhcurveto
            63 54 11 17 55 hvcurveto
            -18 122 -62 callsubr
            27 52 hvcurveto
            229 hlineto
            4 31 2 38 35 -44 callsubr
            return
          </CharString>
          <CharString index="54">
            68 -49 callsubr
            return
          </CharString>
          <CharString index="55">
            rmoveto
            -262 -164 -164 -269 -272 153 -160 273 261 173 161 271 266 -157 167 -277 hvcurveto
            return
          </CharString>
          <CharString index="56">
            hstem
            42 4 callgsubr
            209 -69 callsubr
            return
          </CharString>
          <CharString index="57">
            hhcurveto
            -3 -152 -85 callsubr
            -36 -58 -62 -13 35 -81 callgsubr
            endchar
          </CharString>
          <CharString index="58">
            rmoveto
            -93 callgsubr
            return
          </CharString>
          <CharString index="59">
            -66 callsubr
            hstem
            return
          </CharString>
          <CharString index="60">
            50 28 27 28 41 vvcurveto
            49 -32 20 -65 vhcurveto
            endchar
          </CharString>
          <CharString index="61">
            -3 -3 rlineto
            4 -24 -20 2 -30 hhcurveto
            50 -119 rmoveto
            33 9 -28 -45 -47 -4 -39 -38 -35 -8 27 47 51 7 34 36 hvcurveto
            endchar
          </CharString>
          <CharString index="62">
            -10 109 35 vlineto
            24 -8 rlineto
            return
          </CharString>
          <CharString index="63">
            vvcurveto
            115 -47 76 -145 return
          </CharString>
          <CharString index="64">
            641 -98 callgsubr
            return
          </CharString>
          <CharString index="65">
            hstem
            381 hmoveto
            138 -147 vlineto
            143 252 -6 89 rlineto
            -359 -140 154 hlineto
            -148 -243 4 -96 rlineto
            return
          </CharString>
          <CharString index="66">
            vhcurveto
            12 146 rlineto
            2 return
          </CharString>
          <CharString index="67">
            -7 callsubr
            24 207 rmoveto
            170 -203 82 63 -106 175 105 175 -75 60 -176 -208 rlineto
            return
          </CharString>
          <CharString index="68">
            621 rmoveto
            -168 -471 -9 callsubr
            return
          </CharString>
          <CharString index="69">
            158 hstem
            75 176 vstem
            75 -53 callsubr
            return
          </CharString>
          <CharString index="70">
            -10 125 241 135 return
          </CharString>
          <CharString index="71">
            vstem
            30 110 rmoveto
            -73 callsubr
            vlineto
            return
          </CharString>
          <CharString index="72">
            rmoveto
            -77 -1 -40 -37 -13 -12 2 7 -15 vhcurveto
            207 vlineto
            return
          </CharString>
          <CharString index="73">
            -44 callsubr
            vhcurveto
            return
          </CharString>
          <CharString index="74">
            7 12 12 5 15 hhcurveto
            36 3 -42 -69 hvcurveto
            endchar
          </CharString>
          <CharString index="75">
            61 21 -21 98 117 406 -20 return
          </CharString>
          <CharString index="76">
            rmoveto
            -173 208 -77 -60 105 -175 -106 -175 84 -63 167 203 rlineto
            endchar
          </CharString>
          <CharString index="77">
            -126 -21 768 -20 hstem
            return
          </CharString>
          <CharString index="78">
            106 -10 153 478 -20 return
          </CharString>
          <CharString index="79">
            -341 167 return
          </CharString>
          <CharString index="80">
            -20 hstem
            -17 callsubr
            vstem
            322 -15 callsubr
            -61 -33 -24 -23 -27 hvcurveto
            -4 return
          </CharString>
          <CharString index="81">
            -6 callgsubr
            11 8 -32 callgsubr
            -28 -30 2 -44 hhcurveto
            return
          </CharString>
          <CharString index="82">
            400 rmoveto
            -96 -65 -63 -129 -144 65 -74 141 157 65 92 183 return
          </CharString>
          <CharString index="83">
            -49 -37 -29 -52 -48 36 -29 50 53 33 29 53 46 -32 30 -54 hvcurveto
            -22 -79 rmoveto
            return
          </CharString>
          <CharString index="84">
            -28 callgsubr
            -12 -20 return
          </CharString>
          <CharString index="85">
            132 93 153 return
          </CharString>
          <CharString index="86">
            12 5 6 13 return
          </CharString>
          <CharString index="87">
            -172 -93 96 190 198 95 90 171 184 85 -109 -177 return
          </CharString>
          <CharString index="88">
            17 7 13 15 15 7 -13 -17 -17 -7 -12 -15 -15 -7 12 17 vhcurveto
            endchar
          </CharString>
          <CharString index="89">
            -44 -124 44 8 callgsubr
            return
          </CharString>
          <CharString index="90">
            30 168 69 170 return
          </CharString>
          <CharString index="91">
            238 rmoveto
            67 9 40 38 26 36 -13 -12 28 vhcurveto
            18 147 rlineto
            return
          </CharString>
          <CharString index="92">
            491 rmoveto
            return
          </CharString>
          <CharString index="93">
            60 50 11 18 49 hvcurveto
            -26 141 rlineto
            -11 -42 -39 -8 -26 hhcurveto
            return
          </CharString>
          <CharString index="94">
            435 -96 vlineto
            -71 -38 rlineto
            -74 vlineto
            return
          </CharString>
          <CharString index="95">
            -21 479 -20 return
          </CharString>
          <CharString index="96">
            hstem
            39 -9 callgsubr
            209 -56 callsubr
            return
          </CharString>
          <CharString index="97">
            -21 callsubr
            9 10 -32 callgsubr
            return
          </CharString>
          <CharString index="98">
            hlineto
            -43 callgsubr
            return
          </CharString>
          <CharString index="99">
            rmoveto
            126 -378 -126 vlineto
            return
          </CharString>
          <CharString index="100">
            25 -21 473 -20 hstem
            return
          </CharString>
          <CharString index="101">
            113 77 112 return
          </CharString>
          <CharString index="102">
            127 42 127 return
          </CharString>
          <CharString index="103">
            172 vstem
            return
          </CharString>
          <CharString index="104">
            133 142 -20 hstem
            126 148 vstem
            30 return
          </CharString>
          <CharString index="105">
            -48 callsubr
            44 return
          </CharString>
          <CharString index="106">
            140 hstem
            return
          </CharString>
          <CharString index="107">
            270 -74 callsubr
            return
          </CharString>
          <CharString index="108">
            206 hlineto
            198 58 142 182 hvcurveto
            return
          </CharString>
          <CharString index="109">
            -74 callgsubr
            endchar
          </CharString>
          <CharString index="110">
            -20 hstemhm
            30 166 return
          </CharString>
          <CharString index="111">
            165 vstem
            return
          </CharString>
          <CharString index="112">
            -172 163 -145 -21 47 119 return
          </CharString>
          <CharString index="113">
            rmoveto
            -66 callgsubr
            vhcurveto
            return
          </CharString>
          <CharString index="114">
            25 -6 callgsubr
            return
          </CharString>
          <CharString index="115">
            hstemhm
            53 167 return
          </CharString>
          <CharString index="116">
            -20 hstem
            174 130 vstem
            430 return
          </CharString>
          <CharString index="117">
            rlineto
            16 56 return
          </CharString>
          <CharString index="118">
            621 rlineto
            return
          </CharString>
          <CharString index="119">
            196 rmoveto
            -56 -8 -22 -38 vhcurveto
            return
          </CharString>
          <CharString index="120">
            -107 -114 -21 784 -20 hstem
            return
          </CharString>
          <CharString index="121">
            -20 hstemhm
            44 167 return
          </CharString>
          <CharString index="122">
            494 154 return
          </CharString>
          <CharString index="123">
            rmoveto
            -108 return
          </CharString>
        <CharString name=".notdef">
          -227 endchar
        </CharString>
        <CharString name=".null">
          -437 endchar
        </CharString>
        <CharString name="A">
          -32 callsubr
          hstem
          -103 callgsubr
          endchar
        </CharString>
        <CharString name="AE">
          261 0 140 -42 117 28 -22 callsubr
          hstemhm
          338 171 hintmask 10111000
          674 -91 callsubr
          -424 hlineto
          -260 -621 rlineto
          168 hlineto
          hintmask 01111000
          38 98 rlineto
          132 hlineto
          hintmask 10111000
          -98 vlineto
          hintmask 01111000
          215 vmoveto
          -88 hlineto
          81 222 rlineto
          7 hlineto
          endchar
        </CharString>
        <CharString name="Aacute">
          -71 callgsubr
          133 360 -80 callgsubr
        </CharString>
        <CharString name="Acircumflex">
          -32 callsubr
          63 128 hstem
          -103 callgsubr
          68 355 -86 callsubr
        </CharString>
        <CharString name="Adieresis">
          -32 callsubr
          62 111 hstem
          102 15 callgsubr
          vstem
          -103 callgsubr
          -148 282 -101 callsubr
        </CharString>
        <CharString name="Agrave">
          -71 callgsubr
          -35 227 -61 callgsubr
        </CharString>
        <CharString name="Aring">
          -32 callsubr
          56 150 hstemhm
          164 164 -61 61 hintmask 11111000
          -103 callgsubr
          -4 370 rmoveto
          -46 -36 -27 -50 -45 35 -28 47 50 32 28 50 44 -31 28 -51 hvcurveto
          -21 -75 rmoveto
          17 7 12 14 vhcurveto
          hintmask 11110100
          14 7 -12 -17 -16 -7 -11 -14 -14 -7 11 16 hvcurveto
          endchar
        </CharString>
        <CharString name="Atilde">
          -32 callsubr
          65 131 hstem
          -103 callgsubr
          136 360 -92 callsubr
        </CharString>
        <CharString name="B">
          58 0 111 372 138 hstem
          44 173 83 171 vstem
          481 179 rmoveto
          85 -30 43 -49 19 vhcurveto
          6 vlineto
          45 29 24 37 64 vvcurveto
          109 -60 50 -127 vhcurveto
          -240 -621 245 hlineto
          139 53 68 111 hvcurveto
          -181 1 rmoveto
          -56 -11 -13 -40 vhcurveto
          -32 147 32 hlineto
          40 11 -22 -56 hvcurveto
          -9 238 rmoveto
          -47 -11 -16 -30 vhcurveto
          -33 128 32 hlineto
          31 11 -17 -48 hvcurveto
          endchar
        </CharString>
        <CharString name="C">
          -27 -10 151 329 161 -12 callgsubr
          vstem
          279 141 rmoveto
          -63 -18 50 113 115 18 51 60 -13 callgsubr
          -178 -65 -123 -203 -201 65 -114 164 -14 callsubr
          endchar
        </CharString>
        <CharString name="CR">
          -437 endchar
        </CharString>
        <CharString name="Ccedilla">
          29 -148 -21 160 144 358 151 hstem
          25 176 vstem
          366 -93 rmoveto
          50 -62 8 14 vvcurveto
          4 2 4 3 4 vhcurveto
          63 4 45 16 42 33 -56 142 rcurveline
          -33 -30 -27 -18 -48 hhcurveto
          -60 -37 76 103 100 37 79 57 49 28 -27 -31 30 hvcurveto
          56 150 rlineto
          43 -41 -47 16 -76 hhcurveto
          -155 -114 -135 -207 -184 91 -105 121 -19 hvcurveto
          -7 -7 -5 -10 -11 vvcurveto
          -15 6 -9 15 -9 vhcurveto
          21 -12 rlineto
          7 -4 4 -4 -5 vvcurveto
          -5 -4 -3 -4 -18 -27 16 17 -18 vhcurveto
          -36 -70 rlineto
          -21 28 38 -11 33 hhcurveto
          61 35 31 45 hvcurveto
          endchar
        </CharString>
        <CharString name="D">
          -46 callgsubr
          -621 1 callsubr
          -175 -17 rmoveto
          -104 -8 -59 -76 vhcurveto
          -33 326 30 hlineto
          76 11 -55 -108 hvcurveto
          endchar
        </CharString>
        <CharString name="Delta">
          61 0 150 471 -20 hstem
          8 hmoveto
          482 16 callgsubr
          11 callsubr
          -252 hlineto
          73 -471 rmoveto
          46 283 rlineto
          9 hlineto
          47 -283 rlineto
          endchar
        </CharString>
        <CharString name="E">
          -48 callgsubr
          -90 callsubr
          endchar
        </CharString>
        <CharString name="Eacute">
          -64 callgsubr
          316 797 -80 callgsubr
        </CharString>
        <CharString name="Ecircumflex">
          -48 callgsubr
          43 128 -90 callsubr
          239 792 -86 callsubr
        </CharString>
        <CharString name="Edieresis">
          -48 callgsubr
          42 111 hstemhm
          44 171 -141 120 40 124 hintmask 11111010
          -92 callgsubr
          hintmask 11110110
          30 719 -101 callsubr
        </CharString>
        <CharString name="Egrave">
          -64 callgsubr
          138 664 -61 callgsubr
        </CharString>
        <CharString name="Eth">
          -46 callgsubr
          -253 -55 -118 55 -250 1 callsubr
          -237 -74 rmoveto
          118 -55 102 30 vlineto
          76 11 -55 -108 -104 -8 -59 -76 hvcurveto
          -33 106 hlineto
          endchar
        </CharString>
        <CharString name="Euro">
          62 -10 151 48 97 31 99 54 161 hstem
          24 416 rmoveto
          -99 54 -31 -54 -97 61 vlineto
          -128 23 68 -71 129 hhcurveto
          -14 callsubr
          -35 -21 15 33 -12 hvcurveto
          152 hlineto
          6 97 rlineto
          -171 31 173 hlineto
          10 99 rlineto
          -172 hlineto
          37 11 21 17 35 hhcurveto
          -13 callgsubr
          -143 -70 -79 -136 -22 hvcurveto
          endchar
        </CharString>
        <CharString name="F">
          -52 21 -21 243 -22 callsubr
          -21 callgsubr
          380 468 rmoveto
          10 153 rlineto
          -346 -621 171 243 133 132 -133 93 hlineto
          endchar
        </CharString>
        <CharString name="G">
          82 -10 151 -120 -21 465 166 hstemhm
          26 174 88 191 -146 146 hintmask 10111000
          282 465 rmoveto
          39 44 -13 -16 53 hvcurveto
          27 163 rlineto
          21 -49 -60 11 -70 hhcurveto
          -182 -58 -128 -197 -196 61 -120 148 57 24 21 21 25 hvcurveto
          4 hlineto
          hintmask 01111000
          16 -32 rlineto
          118 343 -191 -118 hlineto
          hintmask 10110100
          45 -76 hlineto
          -4 -20 -10 -4 -24 hhcurveto
          -68 -11 57 111 91 11 65 71 hvcurveto
          endchar
        </CharString>
        <CharString name="H">
          106 -2 callsubr
          172 117 -9 callgsubr
          503 hmoveto
          621 -170 -244 -117 244 -172 -621 172 235 117 -235 vlineto
          endchar
        </CharString>
        <CharString name="I">
          -159 -48 callsubr
          54 -9 callgsubr
          224 -56 callsubr
          endchar
        </CharString>
        <CharString name="IJ">
          125 11 -21 31 -55 callsubr
          hstemhm
          54 170 126 168 hintmask 01111000
          224 -56 callsubr
          464 -39 callsubr
          hintmask 10111000
          -30 callgsubr
          endchar
        </CharString>
        <CharString name="Iacute">
          -165 -66 callsubr
          63 133 hstem
          43 -9 callgsubr
          213 -56 callsubr
          215 797 -80 callgsubr
        </CharString>
        <CharString name="Icircumflex">
          -165 -66 callsubr
          63 128 -11 callsubr
          157 792 -86 callsubr
        </CharString>
        <CharString name="Idieresis">
          -165 -66 callsubr
          62 111 hstemhm
          -16 120 -65 170 -65 121 hintmask 11101000
          209 -56 callsubr
          hintmask 11110100
          -55 719 -101 callsubr
        </CharString>
        <CharString name="Igrave">
          -165 -66 callsubr
          63 133 -11 callsubr
          43 664 -61 callgsubr
        </CharString>
        <CharString name="Itilde">
          -159 -66 callsubr
          65 131 hstem
          54 -9 callgsubr
          224 -56 callsubr
          222 797 -92 callsubr
        </CharString>
        <CharString name="J">
          -149 11 -21 631 -20 -51 callgsubr
          endchar
        </CharString>
        <CharString name="Jcircumflex">
          -149 11 -21 631 -20 63 128 -51 callgsubr
          -18 667 -86 callsubr
        </CharString>
        <CharString name="K">
          48 -2 callsubr
          166 vstem
          484 hmoveto
          -111 300 121 321 rlineto
          -184 hlineto
          -90 -260 rlineto
          -10 260 -166 -621 166 234 10 hlineto
          75 -234 rlineto
          endchar
        </CharString>
        <CharString name="L">
          -25 callgsubr
          482 -171 -621 hlineto
          endchar
        </CharString>
        <CharString name="Ldotaccent">
          -13 0 139 77 179 226 -20 hstem
          44 171 29 192 vstem
          360 hmoveto
          10 139 rlineto
          -155 482 -171 -621 hlineto
          200 306 -53 callgsubr
        </CharString>
        <CharString name="Lslash">
          -25 callgsubr
          149 hlineto
          53 34 rlineto
          148 vlineto
          -53 -34 rlineto
          185 -171 -294 vlineto
          -43 -27 rlineto
          -148 vlineto
          43 27 rlineto
          -179 vlineto
          endchar
        </CharString>
        <CharString name="M">
          246 -48 callsubr
          48 145 295 146 vstem
          645 hmoveto
          -21 11 callsubr
          -222 hlineto
          -54 -336 rlineto
          -8 hlineto
          -56 336 rlineto
          -225 hlineto
          -21 -621 rlineto
          155 324 10 hlineto
          56 -324 rlineto
          161 hlineto
          59 324 rlineto
          9 -324 hlineto
          endchar
        </CharString>
        <CharString name="N">
          104 21 -21 621 -20 -60 callsubr
          endchar
        </CharString>
        <CharString name="Nacute">
          104 -66 callsubr
          63 133 -60 callsubr
          85 797 -80 callgsubr
        </CharString>
        <CharString name="Ntilde">
          106 -66 callsubr
          65 131 hstem
          45 152 148 153 vstem
          498 -73 callgsubr
          85 797 -92 callsubr
        </CharString>
        <CharString name="O">
          -44 callgsubr
          -106 callsubr
          endchar
        </CharString>
        <CharString name="OE">
          255 -10 156 -125 -21 249 132 93 147 -142 -20 172 -20 hstemhm
          25 174 hintmask 10101110
          271 -87 callsubr
          hvcurveto
          hintmask 01110010
          31 28 4 6 24 hvcurveto
          316 hlineto
          hintmask 10110010
          146 -173 vlineto
          9 30 6 34 3 39 rrcurveto
          133 132 -132 hlineto
          -3 34 -5 32 -7 27 rrcurveto
          169 147 -310 hlineto
          hintmask 10101110
          6 -25 -29 4 -32 -50 callsubr
        </CharString>
        <CharString name="Oacute">
          -85 callgsubr
          145 324 -80 callgsubr
        </CharString>
        <CharString name="Ocircumflex">
          -44 callgsubr
          33 128 -106 callsubr
          73 319 -86 callsubr
        </CharString>
        <CharString name="Odieresis">
          -44 callgsubr
          32 111 hstemhm
          24 174 -69 15 callgsubr
          -68 172 hintmask 11110010
          -106 callgsubr
          hintmask 11101100
          -138 246 -101 callsubr
        </CharString>
        <CharString name="Ograve">
          -85 callgsubr
          -38 191 -61 callgsubr
        </CharString>
        <CharString name="Omega">
          113 0 133 340 158 hstem
          32 169 145 -9 callgsubr
          274 -27 callgsubr
          -166 -76 -95 -169 -106 30 -64 44 -60 hvcurveto
          -4 -74 -133 225 124 vlineto
          -32 51 -24 61 81 vvcurveto
          96 6 60 64 72 3 -60 -96 -83 -15 -54 -40 -57 vhcurveto
          -123 227 133 -81 4 vlineto
          49 58 30 62 103 vvcurveto
          170 -71 101 -171 vhcurveto
          endchar
        </CharString>
        <CharString name="Oslash">
          101 -50 -21 61 145 344 152 52 -20 -23 callgsubr
          -119 20 -85 48 -54 hvcurveto
          -50 -126 rlineto
          168 hlineto
          25 63 rlineto
          -1 10 11 -1 11 hhcurveto
          177 70 106 224 107 -17 78 -39 51 hvcurveto
          50 127 rlineto
          -166 hlineto
          -22 -55 rlineto
          2 -16 -17 1 -17 -50 callsubr
        </CharString>
        <CharString name="Otilde">
          -44 callgsubr
          35 131 -106 callsubr
          139 324 -92 callsubr
        </CharString>
        <CharString name="P">
          27 21 -21 203 118 158 142 hstem
          44 168 74 -4 callsubr
          258 203 rmoveto
          132 68 54 154 152 -71 58 -140 hvcurveto
          -203 -621 168 203 hlineto
          74 12 callsubr
          -28 158 24 14 callgsubr
        </CharString>
        <CharString name="Q">
          101 -85 -21 96 145 338 158 -23 callgsubr
          -204 68 -119 171 hvcurveto
          107 -62 rlineto
          -27 46 38 -7 47 hhcurveto
          19 hlineto
          11 129 -126 11 rlineto
          4 vlineto
          74 56 35 83 143 vvcurveto
          214 -67 97 -177 vhcurveto
          -100 callgsubr
          endchar
        </CharString>
        <CharString name="R">
          57 21 -21 621 -20 -95 callgsubr
          endchar
        </CharString>
        <CharString name="Racute">
          57 -66 callsubr
          63 133 -95 callgsubr
          97 396 -80 callgsubr
        </CharString>
        <CharString name="Rcaron">
          57 -66 callsubr
          51 129 -95 callgsubr
          -114 251 -52 callgsubr
        </CharString>
        <CharString name="Rcommaaccent">
          57 -154 -21 47 119 30 -55 callsubr
          hstemhm
          44 168 -47 184 -63 183 hintmask 11111010
          -100 callsubr
          -34 -410 rmoveto
          hintmask 11110100
          -68 callgsubr
        </CharString>
        <CharString name="S">
          12 callgsubr
          -84 callgsubr
          endchar
        </CharString>
        <CharString name="Scaron">
          12 callgsubr
          21 129 -84 callgsubr
          -65 21 -52 callgsubr
        </CharString>
        <CharString name="T">
          -27 21 -21 470 151 hstem
          118 171 vstem
          405 470 rmoveto
          10 151 rlineto
          -410 hlineto
          -10 -151 rlineto
          123 -470 171 470 hlineto
          endchar
        </CharString>
        <CharString name="Thorn">
          25 -2 callsubr
          168 66 -4 callsubr
          250 114 rmoveto
          136 64 58 150 152 -64 58 -147 hvcurveto
          -27 89 -168 -621 168 114 hlineto
          66 12 callsubr
          -20 158 16 14 callgsubr
        </CharString>
        <CharString name="U">
          -29 callsubr
          -96 callgsubr
          endchar
        </CharString>
        <CharString name="Uacute">
          -75 callsubr
          151 654 -80 callgsubr
        </CharString>
        <CharString name="Ucircumflex">
          -29 callsubr
          63 128 -96 callgsubr
          71 649 -86 callsubr
        </CharString>
        <CharString name="Udieresis">
          -29 callsubr
          62 111 hstemhm
          44 175 -87 15 callgsubr
          -86 172 hintmask 11110010
          -98 callsubr
          hintmask 11101100
          -142 576 -101 callsubr
        </CharString>
        <CharString name="Ugrave">
          -75 callsubr
          -48 521 -61 callgsubr
        </CharString>
        <CharString name="V">
          68 -48 callsubr
          493 621 rmoveto
          -180 hlineto
          -41 -407 rlineto
          -17 hlineto
          -54 407 rlineto
          -189 hlineto
          112 -621 rlineto
          264 hlineto
          endchar
        </CharString>
        <CharString name="W">
          244 -48 callsubr
          661 621 rmoveto
          -158 hlineto
          -18 -329 rlineto
          -10 hlineto
          -46 329 rlineto
          -167 hlineto
          -42 -329 rlineto
          -10 hlineto
          -26 329 rlineto
          -164 hlineto
          65 -621 rlineto
          207 hlineto
          45 275 rlineto
          8 hlineto
          54 -275 rlineto
          206 hlineto
          endchar
        </CharString>
        <CharString name="X">
          51 -48 callsubr
          482 hmoveto
          -92 322 81 299 rlineto
          -176 hlineto
          -37 -184 rlineto
          -8 hlineto
          -34 184 rlineto
          -202 hlineto
          89 -299 -97 -322 rlineto
          184 hlineto
          47 198 rlineto
          8 hlineto
          42 -198 rlineto
          endchar
        </CharString>
        <CharString name="Y">
          27 21 -21 621 -20 -58 callsubr
          endchar
        </CharString>
        <CharString name="Yacute">
          27 -66 callsubr
          53 133 -58 callsubr
          73 595 -80 callgsubr
        </CharString>
        <CharString name="Ydieresis">
          27 -66 callsubr
          62 111 hstemhm
          95 120 -69 170 -61 121 hintmask 11101000
          -78 callsubr
          hintmask 11110100
          -221 527 -101 callsubr
        </CharString>
        <CharString name="Z">
          15 3 callgsubr
          155 -47 callgsubr
          endchar
        </CharString>
        <CharString name="Zcaron">
          15 3 callgsubr
          155 31 129 -47 callgsubr
          138 652 -52 callgsubr
        </CharString>
        <CharString name="a">
          -55 callgsubr
          -107 callsubr
          endchar
        </CharString>
        <CharString name="aacute">
          -93 callsubr
          165 553 -81 callsubr
        </CharString>
        <CharString name="acircumflex">
          -55 callgsubr
          29 135 -107 callsubr
          93 548 -90 callgsubr
        </CharString>
        <CharString name="acute">
          520 -1 callsubr
          376 660 -81 callsubr
        </CharString>
        <CharString name="adieresis">
          -55 callgsubr
          28 117 hstemhm
          14 153 -104 127 38 131 -131 158 hintmask 11110010
          -107 callgsubr
          hintmask 11101100
          -135 471 -103 callsubr
        </CharString>
        <CharString name="ae">
          206 -10 127 79 83 62 150 hstem
          14 153 61 4 callsubr
          14 132 rmoveto
          -90 47 -52 80 75 39 23 39 34 vhcurveto
          4 hlineto
          -40 31 46 -22 67 -54 callsubr
          -41 -33 -9 -16 -27 vhcurveto
          15 -22 -30 10 -38 hhcurveto
          -72 -78 -15 -18 -70 hvcurveto
          25 -146 10 callsubr
          60 -95 callsubr
          418 218 -82 callsubr
          -234 -243 -94 callgsubr
          endchar
        </CharString>
        <CharString name="agrave">
          -93 callsubr
          -18 413 -70 callsubr
        </CharString>
        <CharString name="ampersand">
          172 -10 125 381 148 hstemhm
          32 159 -102 155 69 145 -21 132 hintmask 11100100
          235 -10 rmoveto
          74 37 12 23 43 hvcurveto
          -28 43 27 -7 72 hhcurveto
          51 hlineto
          10 125 rlineto
          -82 7 hlineto
          44 45 15 50 76 vvcurveto
          34 -132 -43 vlineto
          -30 -3 -20 -9 -19 vhcurveto
          -4 hlineto
          -76 95 rlineto
          hintmask 11011000
          83 47 30 42 89 vvcurveto
          97 -56 59 -130 -127 -56 -54 -110 -53 20 -40 29 -36 vhcurveto
          hintmask 11101000
          -62 -32 -44 -41 -96 vvcurveto
          -127 74 -65 129 vhcurveto
          14 133 rmoveto
          -38 -20 24 38 29 8 13 17 14 hvcurveto
          94 -114 rlineto
          -4 vlineto
          -31 373 rmoveto
          23 11 -10 -27 -26 -11 -9 -25 -22 hvcurveto
          hintmask 11011000
          -18 21 -15 12 26 vvcurveto
          24 10 11 25 vhcurveto
          endchar
        </CharString>
        <CharString name="approxequal">
          55 97 166 25 166 hstem
          452 263 rmoveto
          -153 -34 hlineto
          14 -49 -43 14 -41 hhcurveto
          -94 -24 -58 -20 callgsubr
          -8 204 rmoveto
          -153 -33 hlineto
          14 -50 -42 14 -41 hhcurveto
          -94 -24 -59 -20 callgsubr
          endchar
        </CharString>
        <CharString name="aring">
          -55 callgsubr
          22 50 -50 158 -49 -20 hstemhm
          14 153 -42 172 -69 69 -69 158 hintmask 1101010010000000
          -107 callgsubr
          13 564 rmoveto
          hintmask 1101001000000000
          -24 callsubr
          hintmask 1110110100000000
          -19 callsubr
        </CharString>
        <CharString name="asciicircum">
          520 135 hstem
          326 655 -89 callsubr
          105 hlineto
          endchar
        </CharString>
        <CharString name="asciitilde">
          5 callgsubr
          411 -63 callgsubr
        </CharString>
        <CharString name="asterisk">
          -13 278 -21 365 -20 hstem
          404 446 rmoveto
          -29 96 -97 -20 -9 100 rlineto
          -110 hlineto
          -10 -99 -102 22 -27 -98 95 -36 -59 -93 91 -60 69 83 73 -84 90 60 -72 93 rlineto
          endchar
        </CharString>
        <CharString name="at">
          449 -182 119 53 125 226 150 49 124 hstem
          24 139 87 153 61 158 101 139 vstem
          250 -89 callgsubr
          -37 22 43 -14 49 hhcurveto
          9 hlineto
          164 84 128 158 233 -140 155 -257 -272 -169 -192 -242 -290 186 -122 223 73 58 8 14 58 hvcurveto
          117 vlineto
          -9 -49 -64 -11 -67 hhcurveto
          -165 -114 88 213 172 97 130 203 167 93 -107 -154 -98 -33 -66 -43 -18 -7 11 25 hvcurveto
          69 5 72 62 vvcurveto
          93 -41 44 -105 -72 -73 -18 -18 -70 vhcurveto
          24 -143 10 callsubr
          56 -104 callgsubr
          endchar
        </CharString>
        <CharString name="atilde">
          -55 callgsubr
          31 138 hstemhm
          14 153 -111 111 61 158 hintmask 11110100
          -107 callgsubr
          161 553 -76 callsubr
          hintmask 11101100
          -80 callsubr
        </CharString>
        <CharString name="b">
          29 -10 130 -99 -21 348 142 151 3 callsubr
          78 168 hintmask 01111100
          0 callgsubr
          -32 -35 -10 -12 -18 vhcurveto
          -4 173 -167 -641 131 hlineto
          10 29 rlineto
          4 hlineto
          hintmask 10111100
          -29 22 42 -10 41 hhcurveto
          136 26 97 164 -42 callgsubr
        </CharString>
        <CharString name="backslash">
          -76 -30 callsubr
          206 -147 rmoveto
          165 hlineto
          -215 768 rlineto
          -166 hlineto
          endchar
        </CharString>
        <CharString name="bar">
          -15 callgsubr
          768 -157 -768 vlineto
          endchar
        </CharString>
        <CharString name="braceleft">
          2 callgsubr
          62 163 vstem
          293 -137 rmoveto
          127 -68 177 vlineto
          52 -14 20 -34 14 vhcurveto
          7 vlineto
          32 16 16 16 56 vvcurveto
          160 68 133 -110 vlineto
          -89 -32 -36 -101 hvcurveto
          -145 vlineto
          -37 -8 0 -46 vhcurveto
          -128 vlineto
          44 10 0 -38 hvcurveto
          -164 vlineto
          -93 35 -36 86 vhcurveto
          endchar
        </CharString>
        <CharString name="braceright">
          2 callgsubr
          110 163 vstem
          152 -137 rmoveto
          86 35 36 93 hvcurveto
          164 vlineto
          38 10 0 44 vhcurveto
          128 vlineto
          -46 -8 0 37 hvcurveto
          145 vlineto
          101 -32 36 -89 vhcurveto
          -110 -133 68 -160 hlineto
          -56 16 -16 32 -16 vhcurveto
          -7 vlineto
          -34 -14 -14 -20 -52 vvcurveto
          -177 -68 -127 vlineto
          endchar
        </CharString>
        <CharString name="bracketleft">
          -3 callgsubr
          48 -9 callgsubr
          284 -137 rmoveto
          128 -66 521 66 129 -236 -778 vlineto
          endchar
        </CharString>
        <CharString name="bracketright">
          -3 callgsubr
          98 -9 callgsubr
          268 -137 rmoveto
          778 -236 -129 66 -521 -66 -128 vlineto
          endchar
        </CharString>
        <CharString name="breve">
          506 110 -110 157 hstemhm
          hintmask 10000000
          269 616 rmoveto
          hintmask 01000000
          -22 -5 20 27 hvcurveto
          -111 hlineto
          -107 48 -50 87 89 48 52 105 2 vhcurveto
          -109 hlineto
          hintmask 10000000
          -27 -5 -20 -22 vhcurveto
          endchar
        </CharString>
        <CharString name="brokenbar">
          -15 callgsubr
          324 -157 -324 vlineto
          157 768 rmoveto
          -157 -296 157 hlineto
          endchar
        </CharString>
        <CharString name="bullet">
          -24 192 -21 259 -20 hstem
          82 302 rmoveto
          -93 47 -38 80 82 40 45 86 83 -37 45 -85 -90 -37 -47 -81 vhcurveto
          endchar
        </CharString>
        <CharString name="c">
          -92 -10 140 215 146 hstem
          22 168 vstem
          190 -16 callsubr
          16 -38 -34 8 -56 hhcurveto
          -132 -63 -111 -149 -146 62 -95 130 47 34 9 14 42 hvcurveto
          -18 128 rlineto
          -7 -31 -26 -4 -25 hhcurveto
          -39 -8 36 72 hvcurveto
          endchar
        </CharString>
        <CharString name="caron">
          518 136 hstem
          182 518 -68 callsubr
        </CharString>
        <CharString name="ccedilla">
          -92 -150 -21 520 142 hstem
          15 168 vstem
          230 349 rmoveto
          26 36 -13 -12 28 hvcurveto
          18 143 rlineto
          16 -38 -34 8 -56 hhcurveto
          -132 -63 -111 -149 -130 49 -89 101 -18 hvcurveto
          -8 -9 -7 -9 -14 -59 callgsubr
          50 -64 6 18 vvcurveto
          4 3 7 4 5 vhcurveto
          38 2 34 8 36 12 -18 128 rcurveline
          -7 -31 -32 -4 -25 hhcurveto
          -39 -8 36 72 67 9 44 38 hvcurveto
          endchar
        </CharString>
        <CharString name="cedilla">
          -150 -21 163 -20 hstem
          352 -99 rmoveto
          50 -64 6 18 vvcurveto
          5 4 7 5 5 vhcurveto
          -65 hlineto
          -9 -8 -6 -11 -11 -59 callgsubr
          endchar
        </CharString>
        <CharString name="cent">
          -40 -58 -21 647 -20 hstemhm
          34 168 -54 132 hintmask 11100000
          202 -16 callsubr
          hintmask 11010000
          -24 10 -26 7 -27 3 rrcurveto
          81 -132 -95 vlineto
          hintmask 11100000
          -76 -38 -38 -91 -113 vvcurveto
          hintmask 11010000
          -112 38 -82 76 -32 vhcurveto
          -84 132 74 vlineto
          21 4 25 6 23 8 -18 128 rcurveline
          -7 -31 -26 -4 -25 hhcurveto
          hintmask 11100000
          -39 -8 36 72 hvcurveto
          endchar
        </CharString>
        <CharString name="circumflex">
          520 135 hstem
          332 655 -90 callgsubr
        </CharString>
        <CharString name="colon">
          -141 -11 158 135 -38 callsubr
          293 vmoveto
          -67 callgsubr
        </CharString>
        <CharString name="comma">
          -133 -92 -21 261 -20 hstem
          82 177 vstem
          166 148 rmoveto
          -55 -29 -28 -52 -39 18 -22 36 -10 hvcurveto
          2 -5 -63 -83 59 -22 rlineto
          65 48 60 47 74 vvcurveto
          57 -28 35 -65 vhcurveto
          endchar
        </CharString>
        <CharString name="commaaccent">
          5 callsubr
          hstem
          161 184 vstem
          248 -9 rmoveto
          -68 callgsubr
        </CharString>
        <CharString name="copyright">
          503 -198 143 45 135 211 142 41 148 hstem
          40 160 88 151 296 4 callsubr
          465 -55 rmoveto
          -20 callsubr
          -192 -84 -96 -186 hvcurveto
          1 722 -52 callsubr
          20 -542 rmoveto
          -37 -10 30 74 76 10 31 34 20 28 -8 -13 39 hvcurveto
          24 134 rlineto
          17 -35 -42 12 -41 hhcurveto
          -138 -50 -94 -154 -153 50 -87 127 45 41 11 14 43 hvcurveto
          -23 126 rlineto
          -11 -39 -31 -5 -15 hhcurveto
          endchar
        </CharString>
        <CharString name="currency">
          342 72 50 368 52 hstem
          161 58 346 62 vstem
          48 468 rmoveto
          125 -73 rlineto
          -8 -30 -4 -29 -29 vvcurveto
          -36 5 -35 12 -38 vhcurveto
          -124 -72 12 -20 5 -6 13 -24 rlinecurve
          39 24 46 26 37 22 rrcurveto
          -50 45 60 -26 80 hhcurveto
          78 60 25 49 46 hvcurveto
          120 -71 12 20 7 8 13 23 rlinecurve
          -120 71 rlineto
          12 35 8 38 37 vvcurveto
          32 -4 30 -9 31 vhcurveto
          117 68 -11 17 -6 14 -13 22 rlinecurve
          -114 -67 rlineto
          56 -43 -66 32 -87 hhcurveto
          -84 -62 -30 -60 -46 hvcurveto
          -120 69 rlineto
          312 -399 rmoveto
          -107 -65 60 123 127 62 58 110 119 55 -70 -114 -124 -59 -60 -115 hvcurveto
          endchar
        </CharString>
        <CharString name="d">
          40 -10 132 228 141 150 -20 hstem
          24 168 78 162 vstem
          387 -10 rmoveto
          25 24 3 1 18 hvcurveto
          15 121 rlineto
          -28 -9 7 25 hvcurveto
          494 -167 -175 vlineto
          18 -21 -25 7 -36 hhcurveto
          -103 -56 -86 -161 -161 38 -93 125 48 33 20 31 20 hvcurveto
          5 hlineto
          -41 14 41 -10 39 hhcurveto
          -195 249 -37 callgsubr
        </CharString>
        <CharString name="dagger">
          -32 -128 -21 482 -3 callsubr
          333 rmoveto
          96 -482 148 482 1 callgsubr
          hlineto
          endchar
        </CharString>
        <CharString name="daggerdbl">
          -19 -128 -21 156 134 192 -3 callsubr
          7 rmoveto
          96 -156 148 156 100 134 -100 192 1 callgsubr
          -133 96 -192 -96 hlineto
          endchar
        </CharString>
        <CharString name="degree">
          -135 382 90 70 89 hstem
          36 89 51 90 vstem
          266 506 rmoveto
          85 -32 40 -84 -80 -34 -42 -83 -85 34 -39 80 83 33 39 85 vhcurveto
          -90 hmoveto
          -25 -7 -9 -19 -19 -6 8 26 25 5 11 20 20 6 -11 -25 vhcurveto
          endchar
        </CharString>
        <CharString name="dieresis">
          519 117 hstem
          109 -5 callsubr
          vstem
          109 578 -103 callsubr
        </CharString>
        <CharString name="divide">
          45 6 158 67 126 63 158 hstem
          154 176 vstem
          430 231 -8 callsubr
          102 -146 -49 callsubr
          414 vmoveto
          -67 callgsubr
        </CharString>
        <CharString name="dollar">
          22 -58 -21 797 -20 hstemhm
          32 177 -41 132 -49 176 hintmask 11101000
          32 434 rmoveto
          -58 callgsubr
          hintmask 11010000
          38 -13 37 -8 44 -5 rrcurveto
          -72 132 78 vlineto
          hintmask 11101000
          83 22 44 68 100 -59 callsubr
          hintmask 11010000
          -33 6 -39 6 -40 3 rrcurveto
          90 -132 -94 vlineto
          hintmask 11101000
          -87 -22 -49 -71 -97 vvcurveto
          endchar
        </CharString>
        <CharString name="dotaccent">
          -49 callgsubr
        </CharString>
        <CharString name="dotaccentcmb">
          -49 callgsubr
        </CharString>
        <CharString name="dotlessi">
          -4 callgsubr
          474 -20 -60 callgsubr
          endchar
        </CharString>
        <CharString name="e">
          5 -34 callgsubr
          hstem
          22 169 vstem
          230 -105 callgsubr
          endchar
        </CharString>
        <CharString name="eacute">
          -88 callsubr
          156 169 -81 callsubr
        </CharString>
        <CharString name="ecircumflex">
          7 -34 callgsubr
          29 135 -97 callsubr
          77 164 -90 callgsubr
        </CharString>
        <CharString name="edieresis">
          7 -34 callgsubr
          28 117 hstemhm
          24 169 -109 -5 callsubr
          -127 175 hintmask 11111001
          -102 callsubr
          hintmask 11110110
          -152 87 -103 callsubr
        </CharString>
        <CharString name="egrave">
          -88 callsubr
          -32 29 -70 callsubr
        </CharString>
        <CharString name="eight">
          27 -10 129 376 136 hstem
          27 157 99 159 vstem
          231 -27 callgsubr
          -130 -74 -63 -101 -83 29 -29 46 -41 hvcurveto
          -4 vlineto
          -51 -28 -29 -42 -71 vvcurveto
          -121 85 -58 124 135 76 59 127 70 -27 39 -55 32 vhcurveto
          4 vlineto
          51 41 24 25 79 vvcurveto
          102 -70 63 -134 vhcurveto
          4 -512 rmoveto
          -36 -15 23 35 33 17 17 23 21 hvcurveto
          38 -27 21 -16 -35 vvcurveto
          -33 -15 -18 -33 vhcurveto
          -1 376 rmoveto
          34 17 -20 -34 -29 -19 -17 -25 -21 hvcurveto
          -33 24 -21 15 35 vvcurveto
          31 15 16 32 vhcurveto
          endchar
        </CharString>
        <CharString name="ellipsis">
          345 -11 158 hstem
          66 176 59 176 63 176 vstem
          66 -53 callsubr
          235 hmoveto
          -93 callgsubr
          239 hmoveto
          -67 callgsubr
        </CharString>
        <CharString name="emdash">
          202 186 134 hstem
          591 186 rmoveto
          134 -543 -134 vlineto
          endchar
        </CharString>
        <CharString name="endash">
          -8 186 134 hstem
          381 186 rmoveto
          134 -333 -134 vlineto
          endchar
        </CharString>
        <CharString name="equal">
          17 91 136 66 136 hstem
          400 293 13 callgsubr
          346 -202 13 callgsubr
          endchar
        </CharString>
        <CharString name="eth">
          35 -10 132 159 119 259 -20 hstem
          22 168 85 175 vstem
          183 -25 callsubr
          136 -42 86 -52 52 hvcurveto
          16 9 rlineto
          111 vlineto
          -93 -46 rlineto
          21 -52 -57 9 -107 hhcurveto
          -131 vlineto
          24 27 -2 -4 22 hvcurveto
          -22 -12 rlineto
          -92 vlineto
          106 55 19 -16 12 -18 9 -26 rlinecurve
          -46 callsubr
        </CharString>
        <CharString name="exclam">
          -139 -11 158 474 -20 hstem
          85 158 vstem
          91 190 rmoveto
          145 hlineto
          14 431 rlineto
          -170 hlineto
          -2 -553 rmoveto
          -67 callgsubr
        </CharString>
        <CharString name="exclamdown">
          -139 -116 -21 474 158 hstem
          65 157 vstem
          217 294 rmoveto
          -145 hlineto
          -14 -431 rlineto
          170 hlineto
          2 553 rmoveto
          50 -26 29 -63 -61 -26 -29 -48 -55 26 -26 61 63 26 26 53 vhcurveto
          endchar
        </CharString>
        <CharString name="f">
          -144 21 -22 callgsubr
          183 -20 hstem
          53 4 callgsubr
          188 648 rmoveto
          -39 callgsubr
          -50 -18 callsubr
          72 vlineto
          8 124 rlineto
          -82 18 -33 callgsubr
        </CharString>
        <CharString name="ff">
          116 21 -22 callgsubr
          43 147 hstem
          53 167 93 4 callgsubr
          448 655 rmoveto
          -40 callgsubr
          -1 callgsubr
          7 13 -1 -2 22 -41 callsubr
          -33 -25 2 -44 hhcurveto
          -62 callgsubr
          93 8 callgsubr
          72 vlineto
          8 124 rlineto
          -82 25 -33 callgsubr
        </CharString>
        <CharString name="ffi">
          328 21 -22 callgsubr
          35 155 -1 -20 8 callsubr
          93 167 79 179 -165 165 hintmask 11101101
          448 655 rmoveto
          -40 callgsubr
          -1 callgsubr
          7 13 -1 -2 22 -41 callsubr
          -33 -25 2 -44 hhcurveto
          -62 callgsubr
          93 8 callgsubr
          93 -341 165 465 -260 25 -26 callsubr
          hintmask 11101110
          111 -79 6 callsubr
          hintmask 11011110
          2 callsubr
        </CharString>
        <CharString name="ffl">
          339 11 -21 31 -22 callgsubr
          43 147 8 callsubr
          93 167 11 callgsubr
          hintmask 01111110
          448 655 rmoveto
          -40 callgsubr
          -1 callgsubr
          7 13 -1 -2 22 -41 callsubr
          -33 -25 2 -44 hhcurveto
          -62 callgsubr
          93 8 callgsubr
          93 -231 vlineto
          hintmask 10111110
          -64 callsubr
        </CharString>
        <CharString name="fi">
          74 21 -22 callgsubr
          29 154 hstem
          53 167 93 4 callsubr
          188 648 rmoveto
          -39 callgsubr
          -50 -18 callsubr
          93 -341 165 465 -260 18 -26 callsubr
          117 -78 rmoveto
          -86 callgsubr
        </CharString>
        <CharString name="five">
          -24 -10 155 111 141 75 149 hstem
          32 155 46 163 vstem
          396 211 rmoveto
          128 -50 58 -93 -25 -24 -5 -9 -17 vhcurveto
          89 181 149 -336 -365 vlineto
          133 -20 rlineto
          12 6 10 8 13 hhcurveto
          28 11 -18 -37 -37 -16 -19 -35 -33 -46 13 18 -60 hvcurveto
          -12 -155 rlineto
          -21 53 46 -10 70 hhcurveto
          144 52 88 133 hvcurveto
          endchar
        </CharString>
        <CharString name="fj">
          80 -7 callgsubr
          30 -22 callgsubr
          45 145 9 -20 8 callsubr
          91 167 hintmask 10111011
          478 465 rmoveto
          -260 25 hlineto
          -10 callsubr
          -33 -25 2 -44 hhcurveto
          -62 callgsubr
          91 -326 vlineto
          hintmask 11011011
          -71 callsubr
          -173 598 6 callsubr
          hintmask 10110111
          2 callsubr
        </CharString>
        <CharString name="fl">
          79 11 -21 31 -22 callgsubr
          190 -20 8 callsubr
          11 callgsubr
          hintmask 01111100
          188 655 rmoveto
          -62 callgsubr
          93 -231 vlineto
          hintmask 10111100
          -64 callsubr
        </CharString>
        <CharString name="florin">
          -68 -126 -21 168 -21 324 99 225 -20 hstem
          92 -147 rmoveto
          91 51 56 98 8 hvcurveto
          26 317 rlineto
          58 hlineto
          10 99 rlineto
          -60 hlineto
          5 57 rlineto
          7 1 3 6 7 hhcurveto
          11 20 -5 -4 18 hvcurveto
          22 155 rlineto
          5 -30 -41 4 -31 hhcurveto
          -83 -58 -55 -97 -8 hvcurveto
          -6 -73 rlineto
          -55 hlineto
          -9 -99 rlineto
          57 hlineto
          -25 -309 rlineto
          -9 -1 -4 -6 -7 hhcurveto
          -11 -20 3 3 -18 hvcurveto
          -7 -143 rlineto
          -6 27 37 -4 22 hhcurveto
          endchar
        </CharString>
        <CharString name="foundryicon">
          804 44 -21 250 52 196 48 hstem
          380 52 473 52 194 50 vstem
          186 157 rmoveto
          40 31 -87 85 rlineto
          262 hlineto
          -152 57 156 -98 53 hhcurveto
          48 161 98 152 59 hvcurveto
          216 -116 50 284 -50 -116 -201 hlineto
          4 20 3 20 22 vvcurveto
          108 -57 74 -96 -68 -38 -24 -44 -30 vhcurveto
          43 -31 -32 25 -70 hhcurveto
          -93 -62 -73 -109 -22 2 -20 4 -20 hvcurveto
          -248 hlineto
          88 84 -40 32 -146 -141 rlineto
          628 -227 rmoveto
          -57 8 -109 83 -47 109 rrcurveto
          180 52 -198 hlineto
          -3 16 -2 17 18 vvcurveto
          89 41 56 73 63 35 -40 -44 16 vhcurveto
          16 hlineto
          43 16 34 41 64 hhcurveto
          75 40 -57 -86 -157 -169 -138 -68 -10 hvcurveto
          endchar
        </CharString>
        <CharString name="four">
          55 21 -21 121 135 365 -20 hstem
          259 162 vstem
          491 121 rmoveto
          7 135 rlineto
          -77 365 -206 hlineto
          -205 -381 17 -119 rlineto
          227 -121 167 121 hlineto
          -162 135 rmoveto
          -88 hlineto
          82 153 rlineto
          6 hlineto
          endchar
        </CharString>
        <CharString name="fraction">
          -35 callgsubr
        </CharString>
        <CharString name="g">
          13 -147 103 35 117 33 99 120 131 -112 112 hstemhm
          25 134 -134 164 70 152 hintmask 11101101
          175 -44 rmoveto
          -11 -5 5 10 hvcurveto
          4 vlineto
          10 5 6 11 vhcurveto
          103 hlineto
          13 5 -5 -10 hvcurveto
          -4 vlineto
          -11 -5 -5 -13 vhcurveto
          -63 535 rmoveto
          -113 -77 -56 -108 -79 25 -40 46 -33 hvcurveto
          -47 -19 -30 -26 -46 vvcurveto
          -42 20 -20 29 -16 vhcurveto
          -4 vlineto
          -24 -13 -15 -14 -25 vvcurveto
          -82 88 -15 95 142 78 43 112 67 -39 33 -76 vhcurveto
          -136 hlineto
          -12 -5 5 11 12 6 5 12 hvcurveto
          48 hlineto
          121 60 55 105 30 -9 23 -23 20 hvcurveto
          5 72 112 vlineto
          hintmask 11110011
          -228 -131 rmoveto
          29 7 -20 -41 -37 -7 -22 -27 -27 -9 22 39 38 7 21 27 hvcurveto
          endchar
        </CharString>
        <CharString name="germandbls">
          67 -10 142 -111 -21 508 147 8 callsubr
          85 174 -152 173 hintmask 10111000
          220 469 rmoveto
          25 13 14 24 36 12 -24 -35 -42 -17 -21 -47 vhcurveto
          -125 vlineto
          hintmask 10110100
          55 31 -19 -51 -38 -12 -21 -33 -12 -12 2 1 -12 hvcurveto
          hintmask 01111000
          -5 -135 rlineto
          hintmask 10110100
          -5 28 29 -5 30 hhcurveto
          117 55 70 119 78 -25 51 -57 29 hvcurveto
          4 vlineto
          hintmask 01111000
          44 32 17 42 64 vvcurveto
          109 -74 67 -145 -137 -70 -52 -122 vhcurveto
          -16 -44 -124 44 -28 callsubr
          vlineto
          endchar
        </CharString>
        <CharString name="grave">
          520 -1 callsubr
          223 520 -70 callsubr
        </CharString>
        <CharString name="greater">
          -43 24 -21 529 -20 hstem
          361 232 rmoveto
          69 vlineto
          -249 231 -82 -113 166 -152 -166 -149 86 -115 rlineto
          endchar
        </CharString>
        <CharString name="greaterequal">
          6 callgsubr
          299 rmoveto
          154 vlineto
          -378 147 rlineto
          -160 vlineto
          222 -63 -222 -61 rlineto
          -159 vlineto
          378 -157 7 callgsubr
        </CharString>
        <CharString name="guillemotleft">
          90 -40 callsubr
          210 -62 rmoveto
          167 -203 84 63 -106 175 105 175 -77 60 -173 -208 rlineto
          endchar
        </CharString>
        <CharString name="guillemotright">
          90 -7 callsubr
          503 269 rmoveto
          -176 208 -75 -60 105 -175 -106 -175 82 -63 170 203 rlineto
          -210 62 -31 callsubr
        </CharString>
        <CharString name="guilsinglleft">
          -119 -40 callsubr
          endchar
        </CharString>
        <CharString name="guilsinglright">
          -120 -7 callsubr
          293 269 -31 callsubr
        </CharString>
        <CharString name="h">
          30 -28 callgsubr
          150 -27 callsubr
          197 -167 -641 -41 callgsubr
        </CharString>
        <CharString name="hbar">
          30 -28 callgsubr
          15 95 40 -27 callsubr
          62 73 95 -73 40 -167 -40 -30 -95 30 -506 -41 callgsubr
        </CharString>
        <CharString name="hungarumlaut">
          508 151 hstem
          291 659 rmoveto
          -121 hlineto
          -77 -151 rlineto
          88 hlineto
          270 151 rmoveto
          -132 hlineto
          -78 -151 rlineto
          90 hlineto
          endchar
        </CharString>
        <CharString name="hyphen">
          -34 193 134 hstem
          355 193 rmoveto
          134 -307 -134 vlineto
          endchar
        </CharString>
        <CharString name="i">
          -4 callgsubr
          15 callsubr
          -60 callgsubr
          -8 -61 callsubr
        </CharString>
        <CharString name="iacute">
          -4 callgsubr
          520 140 -10 callgsubr
          229 660 -81 callsubr
        </CharString>
        <CharString name="icircumflex">
          -4 callgsubr
          520 135 -10 callgsubr
          159 655 -90 callgsubr
        </CharString>
        <CharString name="idieresis">
          -4 callgsubr
          519 117 hstemhm
          -32 127 -62 165 -61 127 hintmask 11010000
          198 -56 callgsubr
          hintmask 11101000
          -65 578 -103 callsubr
        </CharString>
        <CharString name="igrave">
          -4 callgsubr
          520 140 -60 callgsubr
          49 520 -70 callsubr
        </CharString>
        <CharString name="ij">
          43 -7 callgsubr
          30 -21 15 callsubr
          hstemhm
          34 165 73 167 hintmask 11011100
          439 -69 callsubr
          hintmask 10111100
          -240 12 rmoveto
          474 -165 -474 vlineto
          -8 570 rmoveto
          -88 callgsubr
          239 hmoveto
          -86 callgsubr
        </CharString>
        <CharString name="infinity">
          230 79 121 136 122 hstem
          44 125 328 126 vstem
          196 458 rmoveto
          -92 -60 -72 -118 -124 61 -65 91 58 43 32 48 33 hvcurveto
          5 hlineto
          -48 29 45 -32 59 hhcurveto
          92 63 66 125 121 -62 67 -93 -61 -46 -31 -46 -30 hvcurveto
          -4 hlineto
          45 -29 -46 32 -56 hhcurveto
          9 -122 rmoveto
          22 29 -26 -42 22 hvcurveto
          -45 -22 -28 -23 -23 hhcurveto
          -24 -12 21 47 47 12 21 24 hvcurveto
          255 hmoveto
          24 13 -21 -47 -47 -13 -21 -24 -24 -26 23 43 -21 hvcurveto
          44 20 29 26 22 hhcurveto
          endchar
        </CharString>
        <CharString name="integral">
          4 -142 143 704 130 hstemhm
          154 169 -159 159 hintmask 11100000
          145 167 rmoveto
          -6 -123 -1 -41 -132 -2 -4 -52 -6 -35 -4 -56 rrcurveto
          54 hlineto
          197 62 71 175 8 hvcurveto
          21 448 rlineto
          104 5 19 49 110 hhcurveto
          8 130 rlineto
          -59 hlineto
          hintmask 11010000
          -181 -65 -95 -148 -7 hvcurveto
          endchar
        </CharString>
        <CharString name="itilde">
          -4 callgsubr
          522 138 -60 callgsubr
          234 660 -83 callgsubr
        </CharString>
        <CharString name="j">
          -189 -7 callgsubr
          503 154 -51 callsubr
          -176 582 rmoveto
          -86 callgsubr
        </CharString>
        <CharString name="jcircumflex">
          -189 -7 callgsubr
          529 135 -51 callsubr
          -9 667 -90 callgsubr
        </CharString>
        <CharString name="k">
          5 -5 callgsubr
          182 -20 hstem
          30 4 callsubr
          -50 callgsubr
          endchar
        </CharString>
        <CharString name="kcommaaccent">
          5 -154 -21 47 119 30 -12 callsubr
          182 -20 hstemhm
          30 165 -66 184 hintmask 11111100
          -50 callgsubr
          -42 -9 rmoveto
          hintmask 11111010
          -68 callgsubr
        </CharString>
        <CharString name="kgreenlandic">
          9 21 -21 480 -20 31 -20 hstemhm
          30 168 hintmask 10110000
          447 hmoveto
          -99 244 rlineto
          52 23 12 29 38 hhcurveto
          7 166 rlineto
          -149 -32 -86 -117 -45 hvcurveto
          -4 hlineto
          hintmask 11010000
          192 -168 -480 166 170 4 vlineto
          62 -170 rlineto
          endchar
        </CharString>
        <CharString name="l">
          -204 11 -21 651 -20 hstem
          30 165 -36 callsubr
          endchar
        </CharString>
        <CharString name="ldot">
          -17 11 -21 226 179 246 -20 hstem
          30 165 29 192 -36 callsubr
          194 -335 -53 callgsubr
        </CharString>
        <CharString name="less">
          -43 24 -21 529 -20 hstem
          278 3 rmoveto
          86 115 -166 149 166 152 -82 113 -249 -231 rlineto
          -69 vlineto
          endchar
        </CharString>
        <CharString name="lessequal">
          6 callgsubr
          157 rmoveto
          159 vlineto
          -222 61 222 63 rlineto
          160 vlineto
          -378 -147 rlineto
          -154 vlineto
          378 -299 7 callgsubr
        </CharString>
        <CharString name="logicalnot">
          51 151 -21 101 126 hstem
          288 142 vstem
          288 130 rmoveto
          142 227 -378 -126 236 hlineto
          endchar
        </CharString>
        <CharString name="lozenge">
          140 -36 -21 710 -20 hstem
          541 298 rmoveto
          -190 355 rlineto
          -116 hlineto
          -189 -355 187 -355 rlineto
          118 hlineto
          35 355 rmoveto
          -93 -190 -91 190 91 189 rlineto
          endchar
        </CharString>
        <CharString name="lslash">
          -204 11 -21 651 -20 hstemhm
          0 199 -165 165 -165 199 hintmask 11001000
          34 110 rmoveto
          -57 callsubr
          hintmask 11100000
          -25 -9 9 22 hvcurveto
          121 vlineto
          hintmask 11001000
          34 22 rlineto
          148 vlineto
          hintmask 11100000
          -34 -22 rlineto
          209 vlineto
          hintmask 11010000
          -165 -314 hlineto
          hintmask 11100000
          -34 -21 rlineto
          -148 vlineto
          hintmask 11001000
          34 21 rlineto
          endchar
        </CharString>
        <CharString name="m">
          269 -23 callsubr
          hstemhm
          -17 callsubr
          69 170 hintmask 11011100
          561 10 callgsubr
          -10 -9 rlineto
          36 -15 -32 20 -57 hhcurveto
          -54 callgsubr
          170 323 vlineto
          -87 callgsubr
          endchar
        </CharString>
        <CharString name="macron">
          530 115 hstem
          395 530 rmoveto
          115 -270 -115 vlineto
          endchar
        </CharString>
        <CharString name="minus">
          45 231 126 hstem
          430 231 -8 callsubr
          endchar
        </CharString>
        <CharString name="mu">
          82 -123 -21 134 142 342 -20 hstem
          30 168 97 -9 callgsubr
          242 -10 rmoveto
          49 30 14 24 24 hvcurveto
          4 hlineto
          -28 26 35 -10 43 hhcurveto
          37 hlineto
          21 123 rlineto
          -33 -13 13 18 hvcurveto
          330 -170 -290 vlineto
          -35 -15 -17 -34 -31 -17 19 33 vhcurveto
          290 -168 -618 166 144 vlineto
          -6 13 17 -4 16 hhcurveto
          endchar
        </CharString>
        <CharString name="multiply">
          39 130 -21 372 -20 hstem
          334 110 rmoveto
          89 89 -98 95 99 95 -92 92 -95 -99 -95 99 -90 -89 100 -95 -100 -96 92 -92 96 100 rlineto
          endchar
        </CharString>
        <CharString name="n">
          30 -23 callsubr
          hstemhm
          -17 callsubr
          hintmask 11011000
          322 10 callgsubr
          -4 hlineto
          hintmask 10111000
          -45 callgsubr
          hintmask 11011000
          -87 callgsubr
          endchar
        </CharString>
        <CharString name="nacute">
          30 -23 callsubr
          61 140 hstemhm
          -17 callsubr
          hintmask 11011100
          322 491 rmoveto
          -54 callgsubr
          170 369 vlineto
          77 -29 45 -86 vhcurveto
          63 169 -81 callsubr
        </CharString>
        <CharString name="nbspace">
          -227 endchar
        </CharString>
        <CharString name="nine">
          22 -10 142 100 120 137 142 hstem
          12 154 104 164 vstem
          183 232 rmoveto
          33 23 5 5 19 hvcurveto
          2 -5 rlineto
          -73 -20 -48 -32 -126 hhcurveto
          -10 -142 rlineto
          286 92 134 246 177 -62 84 -157 -135 -68 -70 -136 -142 68 -51 103 hvcurveto
          35 120 rmoveto
          -38 -14 23 48 44 12 22 34 51 7 -42 -62 -7 0 -9 -1 -8 hvcurveto
          -5 -13 -18 -4 -20 hhcurveto
          endchar
        </CharString>
        <CharString name="notequal">
          17 -5 -21 117 136 66 136 120 -20 hstem
          400 91 rmoveto
          136 -109 vlineto
          21 66 rlineto
          88 136 -43 hlineto
          39 120 rlineto
          -150 hlineto
          -40 -120 rlineto
          -152 -136 107 hlineto
          -21 -66 rlineto
          -86 -136 41 hlineto
          -38 -117 rlineto
          151 hlineto
          38 117 rlineto
          endchar
        </CharString>
        <CharString name="ntilde">
          36 -23 callsubr
          63 138 hstemhm
          33 168 69 109 -109 170 hintmask 11011100
          325 491 rmoveto
          -54 callgsubr
          vlineto
          hintmask 11011010
          170 369 hlineto
          77 -29 45 -86 vhcurveto
          hintmask 11011100
          54 169 -83 callgsubr
        </CharString>
        <CharString name="numbersign">
          59 21 -21 154 125 43 123 151 -20 hstem
          472 322 rmoveto
          123 -62 vlineto
          20 151 rlineto
          -130 hlineto
          -20 -151 rlineto
          -27 hlineto
          20 151 rlineto
          -130 hlineto
          -22 -151 rlineto
          -75 -123 60 hlineto
          -8 -43 rlineto
          -74 -125 57 hlineto
          -23 -154 rlineto
          132 hlineto
          23 154 rlineto
          29 hlineto
          -18 -154 rlineto
          126 hlineto
          20 154 rlineto
          81 125 -65 hlineto
          8 43 rlineto
          -123 6 rmoveto
          -9 -55 rlineto
          -39 hlineto
          9 55 rlineto
          endchar
        </CharString>
        <CharString name="o">
          21 -37 callsubr
          hstem
          22 -17 callgsubr
          231 -105 callsubr
          endchar
        </CharString>
        <CharString name="oacute">
          -83 callsubr
          150 304 -81 callsubr
        </CharString>
        <CharString name="ocircumflex">
          25 -37 callsubr
          29 135 -94 callsubr
          76 299 -90 callgsubr
        </CharString>
        <CharString name="odieresis">
          25 -37 callsubr
          28 117 hstemhm
          24 168 -109 -5 callsubr
          -108 -77 callgsubr
          -149 222 -103 callsubr
        </CharString>
        <CharString name="oe">
          247 -10 127 79 83 77 135 hstem
          17 168 79 -9 callgsubr
          477 -15 callsubr
          -57 -40 -14 -26 -28 hvcurveto
          27 -27 -40 13 -59 hhcurveto
          -75 callgsubr
          61 41 13 30 27 hvcurveto
          -28 28 40 -15 55 -54 callsubr
          vhcurveto
          -252 -99 callsubr
          248 -6 -82 callsubr
          endchar
        </CharString>
        <CharString name="ogonek">
          -163 163 hstem
          176 -93 rmoveto
          -50 34 -20 41 42 28 16 27 28 vhcurveto
          -32 56 rlineto
          -12 -12 -12 -7 -12 hhcurveto
          -5 -3 3 6 22 20 25 23 27 hvcurveto
          -84 hlineto
          -32 -26 -24 -28 -39 vvcurveto
          endchar
        </CharString>
        <CharString name="ograve">
          -83 callsubr
          -26 164 -70 callsubr
        </CharString>
        <CharString name="one">
          -117 -48 callsubr
          90 4 callgsubr
          257 hmoveto
          621 -137 vlineto
          -102 -54 rlineto
          -105 72 -462 vlineto
          endchar
        </CharString>
        <CharString name="onehalf">
          339 0 100 -89 -21 336 116 179 -20 30 14 callsubr
          401 119 hintmask 01101110
          493 -67 callsubr
          -102 196 rmoveto
          hintmask 10110110
          -11 callgsubr
          500 256 -65 callgsubr
        </CharString>
        <CharString name="onequarter">
          363 11 -21 31 -21 85 94 442 -20 30 14 callsubr
          377 114 hintmask 10101110
          493 -67 callsubr
          438 95 -24 callgsubr
          hintmask 01110110
          -14 callgsubr
          -377 -100 rmoveto
          -11 callgsubr
          endchar
        </CharString>
        <CharString name="onesuperior">
          -158 207 -21 435 14 callsubr
          vstemhm
          211 186 rmoveto
          -13 callsubr
          hintmask 11100000
          50 -323 hlineto
          endchar
        </CharString>
        <CharString name="ordfeminine">
          -57 288 87 159 105 hstem
          50 107 43 110 vstem
          50 387 rmoveto
          -61 29 -38 56 44 20 13 23 16 vhcurveto
          3 hlineto
          -28 11 24 -8 31 hhcurveto
          18 7 1 2 20 hvcurveto
          11 84 rlineto
          -21 -9 5 18 hvcurveto
          48 4 53 44 vvcurveto
          65 -29 31 -74 -50 -55 -11 -12 -49 vhcurveto
          18 -103 rlineto
          12 39 42 9 24 hhcurveto
          14 6 -9 -11 hvcurveto
          -17 vlineto
          -94 -8 -56 -19 -83 vvcurveto
          129 -17 rmoveto
          -15 -7 9 17 24 15 7 32 4 hvcurveto
          -34 vlineto
          -19 -8 -8 -17 vhcurveto
          endchar
        </CharString>
        <CharString name="ordmasculine">
          -49 288 87 169 95 hstem
          48 118 55 117 vstem
          195 639 rmoveto
          -100 -47 -51 -124 -123 44 -53 103 101 42 52 129 119 -44 51 -99 hvcurveto
          -1 -95 rmoveto
          25 2 -16 -57 hvcurveto
          -21 vlineto
          -59 -3 -16 -23 -27 -2 17 63 vhcurveto
          16 vlineto
          57 3 16 25 vhcurveto
          endchar
        </CharString>
        <CharString name="oslash">
          8 -50 -21 61 125 241 135 59 -20 hstem
          17 -17 callgsubr
          226 -15 callsubr
          -143 -66 -73 -177 -97 19 -67 42 -40 hvcurveto
          -43 -108 rlineto
          133 hlineto
          24 63 rlineto
          -1 11 11 -1 12 hhcurveto
          145 60 74 184 93 -19 64 -41 39 hvcurveto
          42 106 rlineto
          -131 hlineto
          -24 -60 rlineto
          1 -10 -11 0 -11 hhcurveto
          -1 -99 callsubr
          endchar
        </CharString>
        <CharString name="otilde">
          25 -37 callsubr
          31 138 hstemhm
          24 168 -114 114 79 110 -110 -77 callgsubr
          149 304 -83 callgsubr
        </CharString>
        <CharString name="p">
          -2 callgsubr
          -11 3 callsubr
          78 168 hintmask 11101100
          198 11 rmoveto
          4 hlineto
          -17 23 19 -5 32 hhcurveto
          134 32 96 164 161 -33 80 -123 -44 -38 -10 -31 -21 hvcurveto
          -5 hlineto
          hintmask 11011100
          -10 30 rlineto
          -138 -616 168 hlineto
          76 374 -35 callsubr
          hintmask 11101100
          -33 callsubr
        </CharString>
        <CharString name="paragraph">
          139 -109 -21 764 -20 hstem
          208 142 31 141 vstem
          522 -130 rmoveto
          764 -280 vlineto
          -138 -84 -82 -146 -138 72 -75 116 hvcurveto
          -323 142 645 31 -645 vlineto
          endchar
        </CharString>
        <CharString name="parenleft">
          13 callsubr
          24 187 vstem
          190 649 16 callsubr
          -103 -58 -125 -166 vvcurveto
          -182 69 -106 93 -102 vhcurveto
          128 43 rlineto
          -69 115 -34 107 126 vvcurveto
          125 31 106 72 109 vhcurveto
          endchar
        </CharString>
        <CharString name="parenright">
          13 callsubr
          119 187 vstem
          16 596 rmoveto
          72 -109 31 -106 -125 vvcurveto
          -126 -34 -107 -69 -115 vhcurveto
          128 -43 rlineto
          93 102 69 106 182 vvcurveto
          166 -58 125 -108 103 vhcurveto
          endchar
        </CharString>
        <CharString name="partialdiff">
          31 -10 132 159 119 80 151 hstem
          20 168 85 175 vstem
          181 -25 callsubr
          255 -144 111 -253 hvcurveto
          -151 vlineto
          98 70 -23 -60 39 hvcurveto
          -46 callsubr
        </CharString>
        <CharString name="percent">
          374 -10 97 95 97 57 103 89 103 hstem
          32 -6 callsubr
          143 -96 callsubr
          endchar
        </CharString>
        <CharString name="period">
          -141 -11 -38 callsubr
          endchar
        </CharString>
        <CharString name="periodcentered">
          -91 216 179 hstem
          81 192 vstem
          81 306 -53 callgsubr
        </CharString>
        <CharString name="perthousand">
          696 -10 97 95 97 57 103 89 103 hstem
          32 -6 callsubr
          143 -6 callsubr
          20 -96 callsubr
          210 -4 -101 callgsubr
          endchar
        </CharString>
        <CharString name="pi">
          71 21 -21 337 137 hstem
          50 168 69 -9 callgsubr
          457 hmoveto
          337 38 137 -482 -137 37 -337 168 337 69 -337 vlineto
          endchar
        </CharString>
        <CharString name="plus">
          45 117 -21 135 126 136 9 callsubr
          231 rmoveto
          126 -126 136 -130 -136 -122 -126 122 -135 130 135 vlineto
          endchar
        </CharString>
        <CharString name="plusminus">
          45 0 126 172 126 130 9 callsubr
          298 rmoveto
          126 -126 130 -130 -130 -122 -126 122 -125 130 125 vlineto
          126 -298 -8 callsubr
          endchar
        </CharString>
        <CharString name="product">
          140 21 -21 479 142 hstem
          73 172 97 171 vstem
          568 479 rmoveto
          142 -559 -142 64 -479 172 479 97 -479 171 479 vlineto
          endchar
        </CharString>
        <CharString name="q">
          29 -116 -21 127 132 228 141 -12 -20 hstemhm
          24 168 78 166 hintmask 11011100
          268 -137 rmoveto
          168 616 -138 hlineto
          -10 -30 rlineto
          -5 hlineto
          hintmask 11101100
          30 -22 -32 12 -46 hhcurveto
          -103 -56 -91 -156 -161 39 -93 125 32 23 10 15 21 hvcurveto
          4 hlineto
          -76 224 -37 callgsubr
        </CharString>
        <CharString name="question">
          -50 -11 154 352 149 hstemhm
          82 172 -40 145 hintmask 11010000
          359 464 rmoveto
          125 -49 55 -114 -43 -47 -8 -13 -52 vhcurveto
          -151 vlineto
          11 42 47 12 21 hhcurveto
          38 12 -15 -35 -35 -30 -14 -37 -18 hvcurveto
          -35 -17 -12 -22 -43 vvcurveto
          -95 131 61 vlineto
          10 6 rlineto
          65 39 53 46 111 vvcurveto
          hintmask 11100000
          -277 -400 rmoveto
          -50 26 -25 63 61 22 26 49 50 -23 29 -60 -63 -26 -29 -50 vhcurveto
          endchar
        </CharString>
        <CharString name="questiondown">
          -50 -163 149 352 154 hstemhm
          30 145 -40 172 hintmask 11100000
          30 21 rmoveto
          -125 59 -59 104 43 47 8 13 52 vhcurveto
          151 vlineto
          -11 -42 -47 -12 -21 hhcurveto
          -38 -12 15 35 35 30 14 37 18 hvcurveto
          35 17 12 17 42 vvcurveto
          101 -131 -61 vlineto
          -10 -6 rlineto
          -63 -38 -55 -43 -111 vvcurveto
          hintmask 11010000
          277 396 rmoveto
          50 -26 25 -63 -61 -22 -26 -49 -50 23 -29 60 63 26 29 50 vhcurveto
          endchar
        </CharString>
        <CharString name="quotedbl">
          0 402 -31 callgsubr
          45 178 22 178 vstem
          134 641 -76 callgsubr
        </CharString>
        <CharString name="quotedblbase">
          0 -98 -31 callgsubr
          45 178 22 178 vstem
          134 141 -76 callgsubr
        </CharString>
        <CharString name="quotedblleft">
          0 409 -31 callgsubr
          14 178 22 178 vstem
          303 388 rmoveto
          -72 callsubr
          -200 hmoveto
          -72 callsubr
          endchar
        </CharString>
        <CharString name="quotedblright">
          0 402 -31 callgsubr
          21 178 22 178 vstem
          110 641 -76 callgsubr
        </CharString>
        <CharString name="quoteleft">
          -200 409 -31 callgsubr
          14 178 vstem
          103 388 rmoveto
          -72 callsubr
          endchar
        </CharString>
        <CharString name="quoteright">
          -65 callsubr
        </CharString>
        <CharString name="quotesinglbase">
          -200 -98 -31 callgsubr
          45 178 vstem
          134 141 -98 callgsubr
          endchar
        </CharString>
        <CharString name="quotesingle">
          -65 callsubr
        </CharString>
        <CharString name="r">
          -124 -5 callgsubr
          32 3 callsubr
          hintmask 10110000
          -63 callsubr
          hintmask 11010000
          -18 callgsubr
          endchar
        </CharString>
        <CharString name="radical">
          161 -109 -21 609 -20 238 135 hstem
          288 111 rmoveto
          -14 hlineto
          -77 368 rlineto
          -182 hlineto
          169 -609 rlineto
          186 hlineto
          212 827 rlineto
          206 hlineto
          19 135 rlineto
          -363 hlineto
          endchar
        </CharString>
        <CharString name="rcaron">
          -124 -5 callgsubr
          32 -20 47 136 hstemhm
          30 166 hintmask 10111000
          -63 callsubr
          hintmask 11011000
          -18 callgsubr
          -97 518 -68 callsubr
        </CharString>
        <CharString name="rcommaaccent">
          -124 5 callsubr
          30 -12 callsubr
          32 3 callsubr
          -166 189 hintmask 10010110
          -63 callsubr
          hintmask 01111010
          -18 callgsubr
          -74 -9 rmoveto
          -57 callgsubr
          hintmask 01110101
          -47 callsubr
        </CharString>
        <CharString name="registered">
          503 -198 143 76 -21 519 148 hstem
          40 160 114 151 49 140 81 4 callsubr
          514 293 rmoveto
          -26 -8 -15 -24 vhcurveto
          -24 83 22 hlineto
          27 7 -15 -27 hvcurveto
          140 21 rmoveto
          103 -58 50 -105 vhcurveto
          -177 -467 151 146 8 hlineto
          50 9 callgsubr
          124 hlineto
          -35 -47 -59 -20 -76 hhcurveto
          -20 callsubr
          -83 -22 -70 -43 -52 hvcurveto
          -62 161 rlineto
          35 32 11 37 56 vvcurveto
          -188 353 -52 callsubr
          endchar
        </CharString>
        <CharString name="ring">
          513 50 -50 158 -49 -20 hstemhm
          171 172 -64 64 hintmask 01010000
          257 671 rmoveto
          -24 callsubr
          hintmask 10101000
          -19 callsubr
        </CharString>
        <CharString name="s">
          -95 -10 128 237 136 hstem
          174 -84 callsubr
          endchar
        </CharString>
        <CharString name="scaron">
          -66 -10 128 237 136 27 136 hstem
          200 -84 callsubr
          -69 27 -68 callsubr
        </CharString>
        <CharString name="section">
          3 -147 148 498 149 hstemhm
          32 187 -153 153 7 147 -147 182 hintmask 11010100
          274 214 rmoveto
          -3 0 -8 -1 -3 vhcurveto
          -65 40 -38 23 41 vvcurveto
          6 0 8 1 6 vhcurveto
          59 -39 44 -22 -49 vvcurveto
          134 34 rmoveto
          171 -189 9 51 vvcurveto
          13 8 7 15 25 41 -9 -12 52 vhcurveto
          22 151 rlineto
          10 -58 -28 9 -53 hhcurveto
          -101 -76 -60 -114 -20 5 -26 8 -16 hvcurveto
          hintmask 11101000
          -26 -34 -21 -37 -68 -160 194 -23 -61 vvcurveto
          -18 -9 -10 -17 -32 -53 14 15 -56 vhcurveto
          -12 -157 rlineto
          -12 61 48 -8 44 hhcurveto
          115 58 67 110 23 -3 23 -8 20 hvcurveto
          hintmask 11100100
          29 43 17 34 75 vvcurveto
          endchar
        </CharString>
        <CharString name="semicolon">
          -133 -92 -21 260 135 0 158 hstemhm
          75 178 hintmask 11010000
          164 147 -98 callgsubr
          -89 214 rmoveto
          -72 callgsubr
          vhcurveto
          hintmask 10110000
          -78 callgsubr
          endchar
        </CharString>
        <CharString name="seven">
          -17 21 -21 462 159 hstem
          404 528 rmoveto
          93 -394 -159 202 vlineto
          -167 -462 rlineto
          188 hlineto
          endchar
        </CharString>
        <CharString name="six">
          22 -10 139 135 131 93 143 hstem
          23 166 104 155 vstem
          239 264 rmoveto
          40 14 -21 -46 -48 -14 -20 -33 -42 -15 37 65 9 1 9 1 8 hvcurveto
          5 17 14 2 17 hhcurveto
          41 131 rmoveto
          -29 -29 -4 -8 -24 hvcurveto
          -2 5 rlineto
          78 24 60 22 109 hhcurveto
          10 143 rlineto
          -260 -116 -114 -250 -180 73 -97 148 147 57 86 135 128 -65 56 -103 hvcurveto
          endchar
        </CharString>
        <CharString name="slash">
          -35 callgsubr
        </CharString>
        <CharString name="space">
          -227 endchar
        </CharString>
        <CharString name="sterling">
          126 -37 192 125 100 251 -20 hstem
          302 -27 callgsubr
          -104 -55 -48 -94 -41 15 -35 11 -33 hvcurveto
          -69 -100 93 -67 -4 hlineto
          7 -15 -19 5 -26 hhcurveto
          -66 -51 -41 -76 -92 57 -39 84 45 29 11 14 27 hvcurveto
          8 hlineto
          -23 46 34 -16 61 hhcurveto
          106 38 67 125 hvcurveto
          -150 -59 -7 hlineto
          -47 20 rlineto
          13 29 7 42 32 vvcurveto
          61 71 vlineto
          10 100 rlineto
          -93 hlineto
          -10 32 -9 29 17 vvcurveto
          7 3 5 7 19 38 -8 -11 51 vhcurveto
          20 161 rlineto
          12 -67 -41 7 -60 hhcurveto
          -169 -535 rmoveto
          10 6 10 12 16 11 -10 -13 13 vhcurveto
          -10 -9 -12 -7 -14 hhcurveto
          -14 -9 7 13 hvcurveto
          endchar
        </CharString>
        <CharString name="summation">
          44 3 callgsubr
          150 hstem
          459 466 rmoveto
          150 -440 vlineto
          -4 -117 164 -192 -154 -194 6 -113 rlineto
          438 143 -192 hlineto
          117 147 rlineto
          46 vlineto
          -101 130 rlineto
          endchar
        </CharString>
        <CharString name="t">
          -120 -10 139 220 124 92 -20 hstem
          56 4 callgsubr
          182 -10 rmoveto
          42 35 4 5 41 hvcurveto
          5 133 rlineto
          -1 -20 -28 -2 -14 hhcurveto
          -14 -6 6 15 hvcurveto
          199 83 vlineto
          7 124 rlineto
          -89 92 -151 hlineto
          -9 -92 rlineto
          -56 -124 48 -232 hlineto
          -96 42 -31 84 vhcurveto
          endchar
        </CharString>
        <CharString name="thorn">
          -2 callgsubr
          151 -20 hstem
          30 167 77 168 vstem
          0 callgsubr
          -34 -30 -6 -16 -21 vhcurveto
          -4 173 -167 -778 168 145 hlineto
          -11 19 26 -8 33 hhcurveto
          137 29 96 166 -42 callgsubr
        </CharString>
        <CharString name="three">
          -9 -10 150 108 131 98 154 hstem
          225 189 vstem
          217 -27 callgsubr
          -73 -49 -14 -39 -73 hvcurveto
          39 -135 rlineto
          21 52 37 13 28 hhcurveto
          36 11 -18 -30 -31 -11 -19 -40 hvcurveto
          -63 -131 62 hlineto
          39 24 -13 -43 -33 -12 -19 -35 -26 -39 12 18 -50 hvcurveto
          -35 -140 rlineto
          -29 68 36 -11 68 hhcurveto
          134 69 70 120 73 -24 44 -62 28 hvcurveto
          4 vlineto
          55 35 22 39 65 vvcurveto
          109 -64 54 -124 vhcurveto
          endchar
        </CharString>
        <CharString name="threequarters">
          441 11 -21 31 -21 85 94 3 105 76 91 69 108 hstemhm
          186 133 347 114 hintmask 10111111
          571 -67 callsubr
          -210 641 -82 callgsubr
          648 -546 -24 callgsubr
          hintmask 01111111
          -14 callgsubr
          endchar
        </CharString>
        <CharString name="threesuperior">
          -74 182 105 76 91 69 108 hstem
          186 133 vstem
          181 631 -82 callgsubr
          endchar
        </CharString>
        <CharString name="tilde">
          5 callgsubr
          408 -63 callgsubr
        </CharString>
        <CharString name="trademark">
          134 301 -21 258 83 hstem
          85 86 76 73 147 74 vstem
          229 538 rmoveto
          5 83 rlineto
          -205 hlineto
          -5 -83 rlineto
          61 -258 86 258 hlineto
          376 -258 rmoveto
          -12 341 rlineto
          -111 hlineto
          -27 -185 rlineto
          -4 hlineto
          -28 185 rlineto
          -112 hlineto
          -12 -341 rlineto
          79 178 5 hlineto
          28 -178 rlineto
          80 hlineto
          30 178 rlineto
          4 -178 hlineto
          endchar
        </CharString>
        <CharString name="two">
          -24 3 callgsubr
          165 hstem
          228 -9 callgsubr
          203 -27 callgsubr
          -75 -51 -15 -37 -69 hvcurveto
          32 -155 rlineto
          27 60 33 15 39 hhcurveto
          37 19 -24 -36 -87 -89 -97 -114 -120 hvcurveto
          8 -102 rlineto
          367 143 -149 hlineto
          94 109 53 62 128 vvcurveto
          121 -68 68 -127 vhcurveto
          endchar
        </CharString>
        <CharString name="twosuperior">
          -75 189 100 226 116 hstem
          198 119 vstem
          180 631 -65 callgsubr
        </CharString>
        <CharString name="u">
          -29 callgsubr
          -97 callgsubr
          endchar
        </CharString>
        <CharString name="uacute">
          -77 callsubr
          254 670 -81 callsubr
        </CharString>
        <CharString name="ucircumflex">
          -29 callgsubr
          61 135 -97 callgsubr
          162 665 -90 callgsubr
        </CharString>
        <CharString name="udieresis">
          -29 callgsubr
          60 117 hstemhm
          30 170 -115 -5 callsubr
          -112 168 hintmask 11110010
          -99 callgsubr
          hintmask 11101100
          -64 588 -103 callsubr
        </CharString>
        <CharString name="ugrave">
          -77 callsubr
          40 530 -70 callsubr
        </CharString>
        <CharString name="underscore">
          -35 -137 104 hstem
          402 -137 rmoveto
          104 -402 -104 vlineto
          endchar
        </CharString>
        <CharString name="v">
          4 -5 callgsubr
          hstem
          441 479 rmoveto
          -163 hlineto
          -46 -307 rlineto
          -13 hlineto
          -43 307 rlineto
          -176 hlineto
          103 -479 rlineto
          236 hlineto
          endchar
        </CharString>
        <CharString name="w">
          141 -5 callgsubr
          hstem
          573 479 rmoveto
          -148 hlineto
          -22 -242 rlineto
          -9 hlineto
          -33 242 rlineto
          -139 hlineto
          -34 -242 rlineto
          -8 hlineto
          -21 242 rlineto
          -154 hlineto
          61 -479 rlineto
          179 hlineto
          38 202 rlineto
          7 hlineto
          39 -202 rlineto
          183 hlineto
          endchar
        </CharString>
        <CharString name="x">
          -4 -5 callgsubr
          hstem
          427 hmoveto
          -82 236 80 243 rlineto
          -171 hlineto
          -31 -153 rlineto
          -6 hlineto
          -29 153 rlineto
          -182 hlineto
          81 -246 -81 -233 rlineto
          172 hlineto
          32 141 rlineto
          6 hlineto
          34 -141 rlineto
          endchar
        </CharString>
        <CharString name="y">
          -8 callgsubr
          hstem
          -91 callgsubr
          endchar
        </CharString>
        <CharString name="yacute">
          -8 callgsubr
          61 -1 callsubr
          -91 callgsubr
          74 674 -81 callsubr
        </CharString>
        <CharString name="ydieresis">
          -8 callgsubr
          60 117 hstem
          66 -5 callsubr
          vstem
          -91 callgsubr
          -255 592 -103 callsubr
        </CharString>
        <CharString name="yen">
          67 21 -21 89 97 31 99 305 -20 hstem
          484 -70 callgsubr
          104 -305 rlineto
          -72 -99 105 hlineto
          9 -25 rlineto
          -6 -114 -97 114 -89 170 89 117 97 -117 6 vlineto
          8 25 rlineto
          109 99 -75 hlineto
          endchar
        </CharString>
        <CharString name="z">
          -44 0 138 201 140 -42 callsubr
          endchar
        </CharString>
        <CharString name="zcaron">
          -44 0 138 201 140 39 136 -42 callsubr
          112 518 -68 callsubr
        </CharString>
        <CharString name="zero">
          36 -10 138 356 147 hstem
          23 162 109 160 vstem
          294 306 rmoveto
          -117 0 -61 -52 -57 0 62 116 vhcurveto
          15 vlineto
          101 0 62 53 56 0 -62 -101 vhcurveto
          160 -10 rmoveto
          207 -36 113 -180 -178 -37 -113 -207 -206 38 -115 177 180 36 115 206 vhcurveto
          endchar
        </CharString>
      <CharString index="0">
        14 -89 callgsubr
        -39 15 35 -12 44 hhcurveto
        25 10 2 2 29 hvcurveto
        15 121 rlineto
        -30 -12 6 26 hvcurveto
        69 5 76 62 vvcurveto
        93 -41 44 -105 -72 -78 -15 -18 -70 vhcurveto
        25 -146 10 callsubr
        60 -104 callgsubr
        return
      </CharString>
      <CharString index="1">
        270 -87 callsubr
        177 70 106 224 214 -67 97 -177 hvcurveto
        -100 callgsubr
        return
      </CharString>
      <CharString index="2">
        348 -82 callsubr
        4 143 rmoveto
        -146 -66 -88 -162 -151 73 -100 140 63 50 9 17 55 hvcurveto
        -14 124 -62 callsubr
        23 52 hvcurveto
        228 hlineto
        3 41 4 40 27 -34 callsubr
        return
      </CharString>
      <CharString index="3">
        -95 callsubr
        184 -25 -94 callgsubr
        return
      </CharString>
      <CharString index="4">
        490 hmoveto
        -114 11 callsubr
        -254 16 callgsubr
        -621 rlineto
        159 hlineto
        19 98 rlineto
        118 hlineto
        19 -98 rlineto
        -38 215 rmoveto
        -77 hlineto
        35 222 rlineto
        7 hlineto
        return
      </CharString>
      <CharString index="5">
        233 -105 callsubr
        return
      </CharString>
      <CharString index="6">
        rmoveto
        -82 0 -42 -37 -40 0 43 81 vhcurveto
        11 vlineto
        70 0 44 38 39 0 -44 -70 vhcurveto
        112 -7 rmoveto
        145 -25 79 -126 -125 -26 -79 -145 -145 27 -80 124 126 25 80 145 vhcurveto
        return
      </CharString>
      <CharString index="7">
        -3 -158 -85 callsubr
        -30 -58 -62 -13 29 -81 callgsubr
        return
      </CharString>
      <CharString index="8">
        149 -10 rmoveto
        61 37 24 23 27 hvcurveto
        4 -35 159 477 -168 -327 hlineto
        -9 -12 -18 -5 -17 hhcurveto
        -15 -7 10 15 hvcurveto
        316 -170 -357 vlineto
        -77 33 -55 86 vhcurveto
        return
      </CharString>
      <CharString index="9">
        rmoveto
        -104 callsubr
        return
      </CharString>
      <CharString index="10">
        hstem
        30 170 69 168 vstem
        -99 callgsubr
        return
      </CharString>
      <CharString index="11">
        hstem
        44 175 108 -4 callsubr
        -98 callsubr
        return
      </CharString>
      <CharString index="12">
        hstem
        44 168 74 183 vstem
        -100 callsubr
        return
      </CharString>
      <CharString index="13">
        rmoveto
        -21 -10 13 24 35 22 10 46 6 hvcurveto
        -49 vlineto
        -27 -12 -12 -25 vhcurveto
        return
      </CharString>
      <CharString index="14">
        -72 callgsubr
        -78 callgsubr
        return
      </CharString>
      <CharString index="15">
        380 -91 callsubr
        -346 -621 hlineto
        return
      </CharString>
      <CharString index="16">
        445 479 rmoveto
        -164 hlineto
        -49 -299 rlineto
        -9 hlineto
        -45 299 rlineto
        -178 hlineto
        115 -444 rlineto
        2 -10 2 -8 -8 vvcurveto
        -17 -8 -10 -26 vhcurveto
        -56 hlineto
        15 -129 rlineto
        100 hlineto
        115 38 37 96 24 hvcurveto
        return
      </CharString>
      <CharString index="17">
        -89 callsubr
        106 hlineto
        endchar
      </CharString>
      <CharString index="18">
        132 rmoveto
        -87 42 -55 80 62 29 19 32 23 vhcurveto
        5 hlineto
        return
      </CharString>
      <CharString index="19">
        -66 callgsubr
        -74 callgsubr
        return
      </CharString>
      <CharString index="20">
        -38 callgsubr
        369 vlineto
        77 -29 45 -86 vhcurveto
        return
      </CharString>
      <CharString index="21">
        -88 callgsubr
        endchar
      </CharString>
      <CharString index="22">
        -44 callgsubr
        33 133 -106 callsubr
        return
      </CharString>
      <CharString index="23">
        hstem
        16 177 42 176 vstem
        211 -27 callgsubr
        -123 -72 -80 -117 hvcurveto
        -58 callgsubr
        -18 55 52 -11 73 hhcurveto
        130 68 74 125 hvcurveto
        -59 callsubr
        10 -53 -70 8 -62 hhcurveto
        return
      </CharString>
      <CharString index="24">
        rmoveto
        -108 -33 hlineto
        -20 5 rlineto
        7 -27 -33 12 -29 hhcurveto
        -80 callsubr
      </CharString>
      <CharString index="25">
        rmoveto
        -51 -35 -10 -27 -51 hvcurveto
        28 -95 rlineto
        15 36 26 9 20 hhcurveto
        25 7 -13 -21 -21 -7 -14 -28 hvcurveto
        -44 -91 43 hlineto
        27 17 -10 -30 -23 -8 -13 -25 -18 -27 8 13 -35 hvcurveto
        -25 -98 rlineto
        -20 48 25 -8 48 hhcurveto
        93 49 49 84 51 -17 31 -43 19 hvcurveto
        3 vlineto
        38 25 15 27 46 vvcurveto
        76 -44 38 -87 vhcurveto
        return
      </CharString>
      <CharString index="26">
        129 vhcurveto
        24 vlineto
        115 9 41 60 vhcurveto
        return
      </CharString>
      <CharString index="27">
        rmoveto
        -152 hlineto
        -60 -133 rlineto
        110 hlineto
        endchar
      </CharString>
      <CharString index="28">
        178 vstem
        134 -43 callsubr
        return
      </CharString>
      <CharString index="29">
        55 -26 26 -61 -63 -26 -26 -53 vhcurveto
        return
      </CharString>
      <CharString index="30">
        167 hintmask 11110010
        -102 callgsubr
        hintmask 11101100
        return
      </CharString>
      <CharString index="31">
        -98 callgsubr
        200 hmoveto
        -104 callsubr
        endchar
      </CharString>
      <CharString index="32">
        -143 -66 -73 -177 -175 63 -76 146 return
      </CharString>
      <CharString index="33">
        53 -25 25 -64 -66 -25 -25 -53 vhcurveto
        return
      </CharString>
      <CharString index="34">
        hmoveto
        621 -153 -298 -8 vlineto
        -123 298 rlineto
        -169 -621 152 289 8 hlineto
        129 -289 rlineto
        return
      </CharString>
      <CharString index="35">
        -50 26 -29 63 61 26 29 48 return
      </CharString>
      <CharString index="36">
        -32 callsubr
        63 133 hstem
        -103 callgsubr
        return
      </CharString>
      <CharString index="37">
        621 rmoveto
        -180 hlineto
        -43 -202 rlineto
        -8 hlineto
        -45 202 rlineto
        -188 hlineto
        return
      </CharString>
      <CharString index="38">
        -9 25 29 -7 26 hhcurveto
        79 11 57 73 hvcurveto
        endchar
      </CharString>
      <CharString index="39">
        -57 callgsubr
        -47 callsubr
      </CharString>
      <CharString index="40">
        -93 callgsubr
        endchar
      </CharString>
      <CharString index="41">
        -52 25 -24 66 64 25 25 51 return
      </CharString>
      <CharString index="42">
        rmoveto
        -52 -36 -11 -26 -48 hvcurveto
        22 -108 rlineto
        19 42 23 10 27 hhcurveto
        26 14 -17 -25 -61 -63 -68 -80 -84 hvcurveto
        6 -71 rlineto
        257 100 -104 hlineto
        65 76 38 44 89 vvcurveto
        85 -48 48 -89 vhcurveto
        endchar
      </CharString>
      <CharString index="43">
        -48 callgsubr
        43 133 -90 callsubr
        return
      </CharString>
      <CharString index="44">
        -26 callgsubr
        hintmask 01000000
        -45 callsubr
        hintmask 10000000
        -69 callgsubr
      </CharString>
      <CharString index="45">
        -40 callgsubr
        -18 callsubr
        return
      </CharString>
      <CharString index="46">
        rmoveto
        109 hlineto
        -62 133 rlineto
        -150 hlineto
        endchar
      </CharString>
      <CharString index="47">
        hstem
        34 4 callsubr
        199 -56 callgsubr
        return
      </CharString>
      <CharString index="48">
        vvcurveto
        -16 10 -13 13 -7 vhcurveto
        17 -10 rlineto
        7 -4 6 -5 -7 vvcurveto
        -7 -5 -3 -7 -18 -23 16 15 -20 vhcurveto
        -34 -63 rlineto
        -20 30 34 -9 31 hhcurveto
        61 33 29 43 hvcurveto
        return
      </CharString>
      <CharString index="49">
        -196 219 8 -72 vvcurveto
        -25 -12 -12 -26 -42 -42 11 20 -69 vhcurveto
        -11 -149 rlineto
        return
      </CharString>
      <CharString index="50">
        -55 -32 -22 -45 -35 27 -17 36 hvcurveto
        -36 -41 80 -6 rlineto
        return
      </CharString>
      <CharString index="51">
        hmoveto
        474 -165 -474 vlineto
        return
      </CharString>
      <CharString index="52">
        -1 -10 125 226 150 return
      </CharString>
      <CharString index="53">
        -16 callgsubr
        -4 hlineto
        hintmask 10111100
        -45 callgsubr
        hintmask 11011100
        -79 callsubr
        return
      </CharString>
      <CharString index="54">
        rmoveto
        -62 32 -28 64 65 31 29 61 58 -31 31 -65 -64 -32 -30 -59 vhcurveto
        endchar
      </CharString>
      <CharString index="55">
        rmoveto
        130 hlineto
        54 129 rlineto
        -93 hlineto
        -27 -48 -26 48 rlineto
        -93 hlineto
        endchar
      </CharString>
      <CharString index="56">
        hstem
        76 168 vstem
        244 -39 callsubr
        -30 callgsubr
        return
      </CharString>
      <CharString index="57">
        443 hmoveto
        -97 240 101 239 rlineto
        -175 hlineto
        -73 -191 rlineto
        -4 353 -165 -641 163 184 4 hlineto
        61 -184 rlineto
        return
      </CharString>
      <CharString index="58">
        15 callsubr
        hstem
        169 180 vstem
        169 -61 callsubr
      </CharString>
      <CharString index="59">
        -33 0 140 103 -22 callsubr
        return
      </CharString>
      <CharString index="60">
        hstem
        442 hmoveto
        143 -179 vlineto
        174 380 -5 98 rlineto
        -422 hlineto
        10 -155 rlineto
        193 hlineto
        -183 -374 4 -92 rlineto
        return
      </CharString>
      <CharString index="61">
        89 0 144 326 151 hstem
        44 170 117 175 vstem
        506 324 rmoveto
        179 -59 118 -193 vhcurveto
        -210 return
      </CharString>
      <CharString index="62">
        -10 35 rlineto
        -153 -479 168 323 hlineto
        return
      </CharString>
      <CharString index="63">
        101 -10 145 338 158 return
      </CharString>
      <CharString index="64">
        -19 -3 -5 -23 vhcurveto
        -34 hlineto
        return
      </CharString>
      <CharString index="65">
        hvcurveto
        -168 -14 -35 callsubr
        -33 callsubr
      </CharString>
      <CharString index="66">
        168 323 hlineto
        -87 callgsubr
        endchar
      </CharString>
      <CharString index="67">
        -39 callgsubr
        -57 return
      </CharString>
      <CharString index="68">
        -92 -43 -49 -84 hvcurveto
        return
      </CharString>
      <CharString index="69">
        -79 callsubr
        170 return
      </CharString>
      <CharString index="70">
        rmoveto
        69 3 42 36 15 12 -5 -7 12 vhcurveto
        -207 vlineto
        -7 -15 -12 -2 -13 hhcurveto
        -37 -1 40 77 hvcurveto
        endchar
      </CharString>
      <CharString index="71">
        -21 621 return
      </CharString>
      <CharString index="72">
        -76 -30 callsubr
        371 621 rmoveto
        -166 hlineto
        -215 -768 rlineto
        165 hlineto
        endchar
      </CharString>
      <CharString index="73">
        -10 127 75 85 71 143 return
      </CharString>
      <CharString index="74">
        hlineto
        -21 callsubr
        15 26 -2 -3 27 vhcurveto
        14 146 rlineto
        3 -34 -52 3 -44 hhcurveto
        endchar
      </CharString>
      <CharString index="75">
        -1 -2 23 -41 callsubr
        return
      </CharString>
      <CharString index="76">
        -21 260 -20 hstem
        return
      </CharString>
      <CharString index="77">
        13 -136 rlineto
        51 hlineto
        126 38 32 103 hvcurveto
        return
      </CharString>
      <CharString index="78">
        30 -10 148 341 -20 return
      </CharString>
      <CharString index="79">
        21 -21 337 154 return
      </CharString>
      <CharString index="80">
        631 rmoveto
        return
      </CharString>
      <CharString index="81">
        660 -19 callgsubr
        return
      </CharString>
      <CharString index="82">
        -75 0 139 482 -20 -21 callgsubr
        360 hmoveto
        10 139 rlineto
        -155 return
      </CharString>
      <CharString index="83">
        rmoveto
        5 94 rlineto
        -54 256 -145 hlineto
        -143 -267 12 -83 rlineto
        159 hlineto
        return
      </CharString>
      <CharString index="84">
        -12 callgsubr
        144 -4 callsubr
        0 callsubr
        return
      </CharString>
      <CharString index="85">
        -21 341 124 return
      </CharString>
      <CharString index="86">
        hstem
        44 171 vstem
        return
      </CharString>
      <CharString index="87">
        -88 hvcurveto
        -14 153 34 vlineto
        -13 39 38 -15 51 hhcurveto
        108 15 67 80 hvcurveto
        return
      </CharString>
      <CharString index="88">
        -76 callsubr
        -67 -19 -49 -81 hvcurveto
        return
      </CharString>
      <CharString index="89">
        -10 29 rlineto
        -146 -479 166 hlineto
        return
      </CharString>
      <CharString index="90">
        168 79 4 callgsubr
        return
      </CharString>
      <CharString index="91">
        -61 -37 -24 -23 -27 hvcurveto
        return
      </CharString>
      <CharString index="92">
        -100 -30 callsubr
        90 157 vstem
        247 -147 rmoveto
        return
      </CharString>
      <CharString index="93">
        -85 117 85 vlineto
        -114 94 rmoveto
        -61 hlineto
        57 107 rlineto
        4 hlineto
        return
      </CharString>
      <CharString index="94">
        29 35 -11 -15 45 hvcurveto
        27 155 rlineto
        18 -39 -53 14 -53 hhcurveto
        return
      </CharString>
      <CharString index="95">
        hstem
        24 174 return
      </CharString>
      <CharString index="96">
        -13 callsubr
        hintmask 10101110
        50 -323 hlineto
        return
      </CharString>
      <CharString index="97">
        hstem
        33 4 callsubr
        198 -56 callgsubr
        return
      </CharString>
      <CharString index="98">
        170 vstem
        return
      </CharString>
      <CharString index="99">
        8 -147 129 497 -20 return
      </CharString>
      <CharString index="100">
        -126 -21 159 -21 return
      </CharString>
      <CharString index="101">
        vlineto
        -21 callsubr
        return
      </CharString>
      <CharString index="102">
        21 -12 callsubr
        return
      </CharString>
      <CharString index="103">
        -205 21 -21 return
      </CharString>
      <CharString index="104">
        -121 -116 -21 149 -21 650 -20 hstem
        return
      </CharString>
      <CharString index="105">
        29 -116 -21 126 131 228 142 return
      </CharString>
      <CharString index="106">
        -95 7 callsubr
        return
      </CharString>
      <CharString index="107">
        442 251 rmoveto
        161 -24 78 -132 return
      </CharString>
      <CharString index="108">
        101 133 -101 142 -148 -142 -96 return
      </CharString>
      <CharString index="109">
        -102 -116 -21 148 -21 651 -20 hstem
        return
      </CharString>
      <CharString index="110">
        0 143 323 return
      </CharString>
      <CharString index="111">
        167 vstem
        return
      </CharString>
      <CharString index="112">
        522 138 -128 -21 hstemhm
        hintmask 10000000
        return
      </CharString>
      <CharString index="113">
        37 0 127 473 -20 hstem
        426 return
      </CharString>
      <CharString index="114">
        rmoveto
        127 -378 -127 vlineto
        endchar
      </CharString>
      <CharString index="115">
        -28 callsubr
        341 return
      </CharString>
      <CharString index="116">
        -146 rlineto
        return
      </CharString>
      <CharString index="117">
        -15 callsubr
        -16 callgsubr
        return
      </CharString>
      <CharString index="118">
        93 165 return
      </CharString>
      <CharString index="119">
        -10 -10 147 339 155 return
      </CharString>
      <CharString index="120">
        rmoveto
        136 -346 -136 vlineto
        return
      </CharString>
      <CharString index="121">
        hlineto
        41 9 -24 -56 hvcurveto
        endchar
      </CharString>
      <CharString index="122">
        120 40 121 return
      </CharString>
      <CharString index="123">
        hlineto
        -114 return
      </CharString>
</ttFont>
